<svg width="1440" height="391" viewBox="0 0 1440 391" fill="none" xmlns="http://www.w3.org/2000/svg">
<g clip-path="url(#clip0_1506_2)">
<path d="M51.8119 64C51.5292 65.1922 50.7517 69.3333 50.1156 73.2235C49.4794 77.1137 48.6313 80.1882 48.2072 80.1255C47.8538 80.0627 47.5004 78.9961 47.571 77.8039L47.6417 75.6078L46.5815 77.9294C45.0265 81.4431 43.2595 81.1294 42.1286 77.1765C41.2098 73.851 39.8668 74.102 40.5736 77.4275C40.8563 78.6824 40.7857 79.1216 40.2202 78.8078C39.7254 78.5569 39.5134 78.9961 39.5841 80.0627C39.7254 81.3176 39.372 81.7569 38.2411 81.9451C37.0396 82.1333 36.5448 81.6314 35.6966 79.1843L34.5657 76.2353L34.4951 78.5569C34.4244 81.8824 33.0108 82.2588 33.0108 78.9333C33.0108 76.9882 32.7987 76.4863 32.3039 77.1765C31.9505 77.6784 31.5971 78.8706 31.5971 79.749C31.5971 80.7529 31.1024 81.6314 30.4662 81.8196C28.8406 82.3843 28.6992 82.1333 28.0631 78.3059C27.4976 74.9176 27.427 74.9176 27.0029 77.9294C26.8615 78.9333 26.5081 80.3137 26.2254 81.0667C25.8013 82.2588 25.7306 82.2588 25.0945 81.3804C24.6704 80.6902 24.7411 79.8118 25.3065 78.9333C26.1547 77.5529 26.084 77.5529 24.8118 78.4314C24.1049 78.9333 23.2568 79.6235 22.9741 80C22.6913 80.3137 22.4086 79.0588 22.3379 77.1765C22.2672 73.9137 22.2672 73.851 21.6311 75.7961C21.2777 76.9255 20.6416 77.6784 20.2882 77.4902C19.652 77.1137 19.5107 77.5529 19.2986 80.3137C19.228 80.8157 18.6625 81.3176 17.9557 81.4431C16.6128 81.6941 16.2594 80.5647 17.673 80.1255C18.3798 79.8745 18.3091 79.749 17.673 79.749C17.1075 79.6863 16.7541 78.6196 16.6834 76.6745C16.6128 73.6627 16.4714 73.851 15.6939 77.9294C15.4112 79.4353 14.9164 80.3137 14.2803 80.3137C13.7148 80.3137 13.2201 79.9373 13.2201 79.4353C13.2201 78.9333 12.8667 78.3059 12.4426 78.0549C11.9478 77.8039 11.8065 78.0549 12.0892 78.9333C12.6546 80.3765 10.1101 85.1451 9.33262 84.1412C9.12057 83.7647 9.12057 82.3843 9.33262 81.1294C9.61534 79.8118 9.89807 77.8667 10.1101 76.8627C10.3928 75.0431 10.3222 75.0431 9.4033 77.1765L8.41376 79.3726L8.2724 77.4902C8.20172 76.3608 7.98968 75.9843 7.70695 76.549C7.42423 77.1765 7.00014 76.6118 6.4347 74.9804L5.58652 72.4706L5.44516 74.6667C5.37448 75.8588 5.02108 77.4275 4.66767 78.1176C4.1729 79.0588 4.10222 78.8706 4.38495 77.1765C4.73835 75.0431 4.73835 75.0431 3.39541 77.8039C2.61792 79.3726 1.98179 80.1882 1.91111 79.6863C1.84043 79.0588 1.62839 79.1216 1.2043 80C-0.279999 83.0745 0.497492 78.9961 3.04201 70.5882C3.32473 69.5843 3.25405 69.5216 2.6886 70.2745C2.26452 70.7765 1.55771 72.3451 1.13362 73.7255C0.709536 75.1059 0.00272369 76.4235 -0.350681 76.6118C-0.774767 76.8627 -1.26953 78.3059 -1.4109 79.9373C-1.97634 84.0157 -3.03656 84.2039 -3.03656 80.1882C-3.03656 77.8039 -2.82452 77.1137 -2.32975 77.8039C-1.90566 78.3686 -1.62294 78.4314 -1.62294 77.9922C-1.62294 76.7373 -2.8952 76.4863 -3.67269 77.6157C-4.30882 78.6196 -4.3795 78.6196 -4.45018 77.6784C-4.45018 77.1137 -4.09677 75.8588 -3.74337 74.8549C-3.10724 73.2235 -3.10724 73.2235 -4.02609 74.2902C-5.01563 75.4196 -5.08631 75.3569 -5.51039 73.6627C-6.35857 70.4627 -6.42925 70.5255 -6.57061 74.0392C-6.64129 76.549 -6.85333 77.1765 -7.27742 76.2353C-7.7015 75.2941 -7.91355 75.9216 -7.91355 78.4314L-7.98423 81.8824L-9.46853 79.749C-10.6701 77.9922 -10.8115 77.302 -10.1753 75.9843C-9.46853 74.5412 -9.46853 74.4784 -10.3167 75.4196C-11.7303 76.9882 -12.013 76.8 -11.7303 74.4784L-11.5183 72.4706L-12.5785 74.3529C-13.4267 75.9216 -13.568 75.9843 -13.6387 74.9176C-13.6387 72.3451 -14.6989 72.7843 -15.4764 75.7333C-16.2539 78.6824 -16.3246 78.6824 -16.4659 76.549C-16.5366 75.3569 -16.7487 74.7294 -16.9607 75.1059C-17.4555 76.298 -19.1518 76.1098 -19.5052 74.7922C-19.7173 74.2275 -19.8586 79.5608 -19.9293 86.7137L-20 99.7647H488.903H997.806L997.736 89.2235C997.736 83.2627 997.453 79.3098 997.17 80C996.605 81.1294 996.464 81.0039 995.827 79.0588C995.191 77.1137 995.121 77.051 994.979 78.4314L994.838 80L994.272 78.4314L993.707 76.8627L993.636 78.5569C993.566 79.5608 993.283 80.3137 992.859 80.3137C992.505 80.3137 992.152 79.5608 992.152 78.5569C992.152 77.2392 992.011 77.051 991.445 77.8039C990.95 78.4941 990.738 77.9922 990.668 75.9216L990.526 73.098L990.102 76.3608C989.607 80.0627 988.618 81.5059 988.618 78.5569C988.618 77.4275 988.335 76.549 987.911 76.549C987.558 76.549 987.204 77.2392 987.204 78.1176C987.204 80.8157 985.791 79.8118 985.72 76.9882C985.579 75.1059 985.508 74.8549 985.296 76.1098C985.155 77.051 984.66 77.6784 984.306 77.4902C983.6 77.051 983.458 78.2431 983.67 83.0118C983.741 85.2078 983.458 86.0863 982.681 86.3373C982.045 86.5255 981.479 87.2157 981.479 87.7804C981.338 89.6627 980.278 85.0824 980.136 81.8824C980.066 79.8745 979.854 79.1843 979.5 79.8745C979.147 80.8157 978.723 80.502 977.45 78.2431C976.602 76.7373 975.825 74.5412 975.825 73.349C975.754 72.1569 975.542 70.3373 975.259 69.3333L974.764 67.451L974.27 69.0824C974.058 69.9608 973.563 72.7216 973.351 75.2314C972.785 80.502 972.079 80.0627 970.877 73.7255C969.675 67.3882 968.827 67.3255 968.827 73.5373C968.827 78.7451 968.757 78.9333 967.06 79.1843C965.01 79.5608 964.586 79.3098 964.586 77.4275C964.586 75.8588 962.537 71.3412 962.466 72.7843C962.466 73.2863 962.113 74.7922 961.688 76.1098C961.052 78.1804 960.84 78.3686 959.639 77.8039C958.861 77.4275 958.225 76.6118 958.225 75.9843C958.225 74.9804 957.872 74.8549 955.681 75.2941C952.924 75.8588 952.924 75.8588 952.005 71.8431L951.44 69.3333L950.521 72.9726C949.602 76.7373 948.4 77.7412 948.259 74.7922C948.188 72.8471 947.906 73.4118 947.27 76.8L946.845 79.2471L945.785 77.4902C945.22 76.4863 944.442 74.2902 944.16 72.5333C943.736 70.2745 943.523 69.898 943.453 71.2157C943.311 72.9726 943.241 73.0353 942.393 71.9686C941.474 70.9647 941.403 71.2784 941.756 74.5412C942.11 77.9294 942.039 78.2431 940.626 78.6196C939.424 78.8706 939 78.5569 938.293 76.3608L937.516 73.7255L936.809 76.549C936.243 79.1216 936.102 79.2471 935.183 78.1176C934.618 77.4902 934.194 76.6118 934.194 76.298C934.194 75.9216 933.84 76.0471 933.487 76.549C932.921 77.3647 932.78 77.302 932.709 76.2353C932.639 75.4196 932.427 75.6706 932.144 76.8627C931.932 77.8667 931.366 78.7451 930.872 78.7451C930.448 78.7451 928.963 79.6863 927.55 80.8157C925.712 82.3216 924.581 82.7608 923.521 82.5098C922.319 82.1333 922.178 81.6941 922.461 79.1843C922.743 76.7373 922.673 76.4863 922.107 77.8039C921.4 79.2471 921.33 79.3098 920.481 78.2431C919.068 76.6118 918.714 76.9255 918.502 80.1882L918.29 83.1373L917.725 80.6275C916.453 74.9804 916.311 74.7294 915.746 77.4902C915.392 79.498 915.322 79.2471 915.463 76.2353C915.604 73.098 915.534 72.7216 914.898 74.0392C914.474 74.9176 913.413 76.9882 912.565 78.7451C911.717 80.4392 910.798 83.0118 910.515 84.3922C910.091 86.4627 909.879 86.7137 909.455 85.6471C909.102 84.9569 908.819 82.6353 908.819 80.502C908.748 78.3686 908.395 76.4235 908.042 76.2353C907.617 76.0471 907.335 76.298 907.335 76.8627C907.335 77.6157 906.557 79.3098 905.356 80.9412C905.214 81.0667 904.861 80.8157 904.508 80.3137C903.942 79.5608 903.801 79.749 903.73 80.9412C903.73 81.9451 903.518 82.1333 903.306 81.5686C903.023 81.0667 902.246 80.1255 901.398 79.498C900.196 78.5569 900.125 78.1176 900.761 76.6745C902.246 73.2863 902.458 72.5333 901.327 74.1647C899.984 76.298 899.277 76.4235 899.701 74.4157C899.984 73.0353 899.913 72.9726 898.429 73.5373C897.015 74.102 895.743 76.8 895.814 78.8706C895.814 79.3098 895.602 79.498 895.248 79.3098C894.895 79.1216 894.612 78.4941 894.542 77.9294C894.542 77.1765 894.329 77.302 893.835 78.3059C893.481 79.1843 892.916 79.5608 892.421 79.3098C891.785 78.9961 891.714 79.3726 892.068 80.502C892.562 82.3216 891.29 83.5137 890.301 82.1333C889.311 80.7529 889.523 78.3059 890.583 78.8078C891.29 79.1843 891.29 79.0588 890.583 78.3686C890.089 77.9294 889.665 76.8627 889.594 75.9216C889.523 74.7922 889.311 75.1059 888.604 77.1765C887.756 79.6863 887.685 79.8118 887.615 78.1176L887.473 76.2353L886.13 77.7412C884.576 79.3726 884.363 78.8078 885.424 76.1098C886.06 74.5412 886.06 74.4784 885.141 75.4824C884.151 76.6118 884.081 76.6118 883.233 75.2314C882.738 74.4157 882.172 72.2196 881.89 70.2745C881.395 66.949 881.395 66.949 881.253 69.4588C881.253 70.9647 880.9 72.1569 880.476 72.1569C880.123 72.1569 879.769 73.6627 879.769 75.5451C879.769 79.0588 878.426 81.2549 878.285 77.9922L878.214 76.2353L877.578 77.9294C877.083 78.9961 876.377 79.5608 875.458 79.498C874.256 79.4353 874.115 78.8706 874.044 74.9804L873.903 70.5882L873.196 73.851C872.842 75.6706 872.277 77.1765 871.994 77.1765C871.712 77.1765 870.934 76.4235 870.227 75.5451C869.096 73.9765 869.096 73.6627 870.157 70.3373C870.793 68.3294 871.287 66.4471 871.287 66.1333C871.287 65.5059 868.672 69.3961 865.138 75.4196C863.795 77.7412 862.452 79.6235 862.24 79.5608C861.109 79.2471 857.151 80.9412 857.081 81.6941C857.01 82.1333 856.586 81.0667 856.091 79.3726L855.172 76.2353L855.102 79.1843C855.031 80.8157 854.677 82.3216 854.183 82.5726C853.617 82.8863 853.476 81.6941 853.829 77.7412C854.183 72.8471 854.112 72.6588 853.264 74.6667C852.769 75.8588 852.274 76.4863 852.274 76.0471C852.133 74.5412 850.79 75.9843 850.79 77.5529C850.79 78.8706 850.507 79.1216 849.235 78.9333C848.175 78.8078 847.68 78.3686 847.68 77.6784C847.751 77.051 847.539 76.7373 847.185 76.9255C846.832 77.1137 846.478 76.0471 846.478 74.5412L846.337 71.8431L845.63 75.1686C844.853 78.7451 843.651 79.1843 842.944 76.1726L842.45 74.3529L842.379 76.0471C842.238 78.4941 841.531 80 840.895 78.9961C840.471 78.4314 839.834 78.6824 838.492 79.8745C837.502 80.7529 836.512 81.1922 836.3 80.8784C835.876 80.3137 836.371 75.6078 837.149 73.098C837.855 70.8392 836.159 72.9726 835.169 75.6078C834.321 77.9922 834.251 78.0549 833.756 76.549C833.473 75.5451 833.261 75.3569 833.19 76.0471C833.12 77.6784 831.918 77.4275 829.515 75.3569L827.465 73.5373L827.395 77.051C827.324 79.749 827.183 80.251 826.758 79.0588C826.476 78.1804 826.334 75.6706 826.476 73.4118C826.688 69.3961 826.688 69.3961 825.91 71.9686C825.486 73.4745 824.85 74.6667 824.567 74.6667C824.214 74.6667 823.931 75.2314 823.931 75.9843C823.931 76.6745 823.648 77.051 823.224 76.8627C822.871 76.6745 822.518 77.051 822.518 77.6784C822.518 78.3686 822.094 79.0588 821.528 79.2471C820.963 79.4353 820.397 80.251 820.185 81.0667C819.973 82.0078 819.832 81.6941 819.69 80L819.478 77.4902L819.054 79.9373C818.701 81.8824 818.277 82.4471 817.004 82.6353C815.874 82.7608 815.237 82.3843 814.743 81.3804L814.107 80V81.4431C814.036 82.3216 813.753 82.7608 813.258 82.4471C812.764 82.1961 812.622 80.8157 812.834 78.8706C813.117 75.9843 813.046 75.8588 812.198 77.2392L811.279 78.7451L811.209 76.8627C811.209 75.5451 810.997 75.2314 810.573 75.8588C810.219 76.298 809.583 76.4863 809.159 76.298C808.169 75.7333 808.169 76.298 809.088 77.8667C809.583 78.6196 809.583 79.0588 809.159 79.0588C808.805 79.0588 808.311 79.5608 808.169 80.1255C807.957 80.8157 807.745 80.502 807.675 79.3726L807.463 77.4902L807.038 79.6863C806.756 80.9412 806.19 81.8196 805.695 81.6941C805.201 81.6314 804.847 82.0078 804.847 82.5726C804.847 83.451 804.635 83.451 803.716 82.8235C803.151 82.3216 802.727 81.2549 802.798 80.3765C802.939 79.498 802.656 78.1804 802.161 77.4902C801.384 76.298 801.384 76.298 801.313 77.8667C801.313 80.502 800.324 80.5647 799.405 77.9922C798.769 76.0471 798.557 75.8588 798.486 77.1765C798.415 78.6196 798.274 78.5569 797.355 76.549C796.436 74.4784 796.436 74.7294 796.79 80L797.284 85.6471L795.729 84.4549C794.952 83.7647 794.245 82.8235 794.245 82.2588C794.245 81.4431 794.104 81.4431 793.609 82.1333C792.62 83.5137 791.418 82.3216 791.418 79.8118L791.347 77.4902L790.428 79.3726C789.58 81.1294 789.51 81.1922 788.732 80C788.167 79.0588 787.884 78.9961 787.813 79.6863C787.743 80.1882 787.318 79.1843 786.824 77.4902C786.329 75.7333 785.834 74.9176 785.834 75.6078C785.763 76.298 785.41 77.302 784.986 77.8039C784.491 78.4941 784.421 77.4902 784.633 74.3529L785.057 69.9608L783.078 73.6C781.523 76.4235 780.957 77.051 780.25 76.4235C779.756 75.9843 779.402 74.9804 779.402 74.0392C779.402 73.1608 779.119 71.7804 778.837 70.902C778.413 69.5843 778.271 69.8353 777.918 72.4706C777.564 74.9176 777.494 74.2902 777.352 69.3333L777.14 63.0588L776.222 66.0706C775.727 67.7647 775.161 69.2706 774.949 69.3961C774.808 69.5843 774.384 67.8902 774.101 65.7569C773.536 61.8667 773.536 61.8667 772.9 64C772.546 65.1922 771.698 69.4588 770.991 73.4118C770.355 77.4902 769.507 80.502 769.153 80.3137C768.729 80.1255 768.447 78.9961 768.517 77.8039L768.588 75.6078L767.528 77.9294C765.973 81.4431 764.206 81.1294 763.075 77.1765C762.156 73.851 760.813 74.102 761.52 77.4275C761.803 78.6824 761.732 79.1216 761.167 78.8078C760.672 78.5569 760.46 78.9961 760.53 80.0627C760.672 81.3176 760.318 81.7569 759.187 81.9451C757.986 82.1333 757.491 81.6314 756.643 79.1843L755.512 76.2353L755.441 78.5569C755.371 81.8824 753.957 82.2588 753.957 78.9333C753.957 76.9882 753.745 76.4863 753.25 77.1765C752.897 77.6784 752.543 78.8706 752.543 79.749C752.543 80.7529 752.049 81.6314 751.412 81.8196C749.787 82.3843 749.645 82.1333 749.009 78.3059C748.444 74.9176 748.373 74.9176 747.949 77.9294C747.808 78.9333 747.454 80.3137 747.172 81.0667C746.748 82.2588 746.677 82.2588 746.041 81.3804C745.617 80.6902 745.687 79.8118 746.253 78.9333C747.101 77.5529 747.03 77.5529 745.758 78.4314C745.051 78.9333 744.203 79.6235 743.92 80C743.638 80.3137 743.355 79.0588 743.284 77.1765C743.214 73.9137 743.214 73.851 742.577 75.7961C742.224 76.9255 741.588 77.6784 741.234 77.4902C740.598 77.1137 740.457 77.5529 740.245 80.3137C740.174 80.8157 739.609 81.3176 738.902 81.4431C737.559 81.6941 737.206 80.5647 738.619 80.1255C739.326 79.8745 739.326 79.749 738.619 79.749C738.054 79.6863 737.7 78.6196 737.63 76.6745C737.559 73.6627 737.418 73.851 736.64 77.9294C736.357 79.4353 735.863 80.3137 735.227 80.3137C734.661 80.3137 734.166 79.9373 734.166 79.4353C734.166 78.9333 733.813 78.3059 733.389 78.0549C732.894 77.8039 732.753 78.0549 733.035 78.9333C733.601 80.3765 731.056 85.1451 730.279 84.1412C730.067 83.7647 730.067 82.3843 730.279 81.1294C730.562 79.8118 730.844 77.8667 731.056 76.8627C731.339 75.0431 731.268 75.0431 730.35 77.1765L729.36 79.3726L729.219 77.4902C729.148 76.3608 728.936 75.9843 728.653 76.549C728.37 77.1765 727.946 76.6118 727.381 74.9804L726.533 72.4706L726.391 74.6667C726.321 75.8588 725.967 77.4275 725.614 78.1176C725.119 79.0588 725.048 78.8706 725.331 77.1765C725.685 75.0431 725.685 75.0431 724.342 77.8039C723.564 79.3726 722.928 80.1882 722.857 79.6863C722.787 79.0588 722.575 79.1216 722.151 80C720.666 83.0745 721.444 78.9961 723.988 70.5882C724.271 69.5843 724.2 69.5216 723.635 70.2745C723.211 70.7765 722.504 72.3451 722.08 73.7255C721.656 75.1059 720.949 76.4235 720.596 76.6118C720.172 76.8627 719.677 78.3059 719.535 79.9373C718.97 84.0157 717.91 84.2039 717.91 80.1882C717.91 77.8039 718.122 77.1137 718.617 77.8039C719.041 78.3686 719.323 78.4314 719.323 77.9922C719.323 76.7373 718.051 76.4863 717.274 77.6157C716.637 78.6196 716.567 78.6196 716.496 77.6784C716.496 77.1137 716.849 75.8588 717.203 74.8549C717.839 73.2235 717.839 73.2235 716.92 74.2902C715.931 75.4196 715.86 75.3569 715.436 73.6627C714.588 70.4627 714.517 70.5255 714.376 74.0392C714.305 76.549 714.093 77.1765 713.669 76.2353C713.245 75.2941 713.033 75.9216 713.033 78.4314L712.962 81.8824L711.478 79.749C710.276 77.9922 710.135 77.302 710.771 75.9843C711.478 74.5412 711.478 74.4784 710.63 75.4824C709.216 76.9882 708.933 76.8 709.216 74.4784L709.428 72.4706L708.368 74.3529C707.52 75.9216 707.378 75.9843 707.308 74.9176C707.308 72.3451 706.247 72.7843 705.47 75.7333C704.692 78.6824 704.622 78.6824 704.48 76.549C704.41 75.3569 704.198 74.7294 703.986 75.1059C703.491 76.2353 701.653 76.1098 701.653 74.9804C701.653 73.5373 700.451 73.851 699.957 75.4196C699.533 76.8627 699.462 76.8627 698.472 75.6706C697.483 74.4784 697.412 74.5412 697.342 76.6118C697.271 78.6196 697.2 78.5569 696.423 75.7333C695.645 72.7843 694.585 72.3451 694.585 74.9176C694.514 75.9843 694.373 75.9216 693.525 74.3529L692.465 72.4706L692.677 74.4784C692.959 76.8 692.677 76.9882 691.263 75.4196C690.415 74.4784 690.415 74.5412 691.122 75.9843C691.758 77.302 691.616 77.9922 690.415 79.749L688.93 81.8824L688.86 78.4314C688.86 75.9216 688.648 75.2941 688.224 76.2353C687.8 77.1765 687.588 76.549 687.517 74.0392C687.375 70.5255 687.305 70.4627 686.457 73.6627C686.033 75.3569 685.962 75.4196 684.972 74.2902C684.054 73.2235 684.054 73.2235 684.69 74.8549C685.043 75.8588 685.396 77.1137 685.396 77.6784C685.326 78.6196 685.255 78.6196 684.619 77.6157C683.841 76.4863 682.569 76.7373 682.569 77.9922C682.569 78.4314 682.852 78.3686 683.276 77.8039C683.771 77.1137 683.983 77.8039 683.983 80.1882C683.983 84.2039 682.923 84.0157 682.357 79.9373C682.216 78.3059 681.721 76.8627 681.297 76.6118C680.944 76.4235 680.237 75.1059 679.813 73.7255C679.389 72.3451 678.682 70.7765 678.258 70.2745C677.692 69.5216 677.622 69.5843 677.904 70.5882C680.59 79.5608 681.085 82.1961 679.742 80.3137C679.389 79.8118 679.035 79.6235 679.035 80C678.964 80.3137 678.328 79.3726 677.551 77.8039C676.208 75.0431 676.208 75.0431 676.561 77.1765C676.844 78.8706 676.773 79.0588 676.279 78.1176C675.925 77.4275 675.572 75.8588 675.501 74.6667L675.36 72.4706L674.582 74.8549C674.087 76.2353 673.522 77.051 673.239 76.8C672.886 76.549 672.674 77.051 672.603 77.8667C672.603 79.1843 672.462 79.0588 671.614 77.1765L670.624 74.9804L670.978 77.4902C671.19 78.8706 671.543 80.7529 671.684 81.6941C672.32 84.5176 671.26 84.9569 669.776 82.5098C668.928 81.1294 668.574 79.6863 668.857 78.9333C669.14 78.0549 668.998 77.8039 668.504 78.0549C668.08 78.3059 667.726 78.9333 667.726 79.4353C667.726 79.9373 667.231 80.3137 666.666 80.3137C666.03 80.3137 665.535 79.4353 665.252 77.9294C664.475 73.851 664.333 73.6627 664.263 76.6745C664.192 78.3686 663.839 79.6863 663.344 79.8745C662.637 80.1255 662.637 80.251 663.344 80.251C663.768 80.3137 664.192 80.6275 664.192 81.0039C664.192 82.0078 661.718 81.3804 661.648 80.3137C661.436 77.5529 661.294 77.1137 660.658 77.4902C660.305 77.6784 659.669 76.9255 659.315 75.7961C658.679 73.851 658.679 73.9137 658.608 77.1765C658.538 79.0588 658.255 80.3137 657.972 80C657.689 79.6235 656.841 78.9333 656.135 78.4314C654.862 77.5529 654.792 77.5529 655.64 78.9333C656.205 79.8745 656.276 80.6902 655.781 81.3804C655.286 82.2588 655.004 82.0078 654.367 79.9373C653.943 78.6196 653.59 76.9255 653.519 76.2353C653.449 75.5451 653.166 76.4863 652.883 78.3059C652.247 82.1333 652.106 82.3843 650.48 81.8196C649.844 81.6314 649.349 80.7529 649.349 79.749C649.349 78.8706 648.996 77.6784 648.642 77.1765C648.148 76.4863 647.935 76.9882 647.935 78.9333C647.935 82.2588 646.522 81.8824 646.451 78.5569L646.38 76.2353L645.25 79.1843C644.401 81.6314 643.907 82.1333 642.705 81.9451C641.574 81.7569 641.221 81.3176 641.362 80.0627C641.433 78.9961 641.221 78.5569 640.726 78.8078C640.161 79.1216 640.09 78.6824 640.373 77.4275C641.079 74.102 639.737 73.851 638.818 77.1765C637.687 81.1294 635.92 81.4431 634.365 77.9922L633.305 75.6078L633.375 77.8039C633.446 78.9961 633.163 80.1255 632.739 80.3137C632.386 80.502 631.538 77.4902 630.901 73.4118C630.195 69.4588 629.346 65.1922 628.993 64C628.357 61.8667 628.357 61.8667 627.791 65.7569C627.509 67.8902 627.085 69.5843 626.943 69.3961C626.731 69.2706 626.166 67.7647 625.671 66.0706L624.752 63.0588L624.54 69.3333C624.399 74.2902 624.328 74.9176 623.975 72.4706C623.621 69.8353 623.48 69.5843 623.056 70.902C622.773 71.7804 622.49 73.1608 622.49 74.0392C622.49 74.9804 622.137 75.9843 621.642 76.4235C620.935 77.051 620.37 76.4235 618.815 73.6L616.836 69.9608L617.26 74.3529C617.472 77.4902 617.401 78.4941 616.907 77.8039C616.482 77.302 616.129 76.298 616.058 75.6078C616.058 74.9176 615.564 75.7333 615.069 77.4902C614.574 79.1843 614.15 80.1882 614.079 79.6863C614.009 78.9961 613.726 79.0588 613.16 80C612.383 81.1922 612.312 81.1294 611.464 79.3726L610.545 77.4902L610.475 79.8118C610.475 82.3216 609.273 83.5137 608.283 82.1333C607.789 81.4431 607.647 81.4431 607.647 82.2588C607.647 82.8235 606.94 83.7647 606.163 84.4549L604.608 85.6471L605.103 80C605.456 74.7294 605.456 74.4784 604.537 76.549C603.619 78.5569 603.477 78.6196 603.406 77.1765C603.336 75.8588 603.124 76.0471 602.488 77.9922C601.569 80.5647 600.579 80.502 600.579 77.8667C600.509 76.298 600.509 76.298 599.731 77.4902C599.236 78.1804 598.954 79.498 599.095 80.3765C599.166 81.2549 598.742 82.3216 598.176 82.8235C597.257 83.451 597.045 83.451 597.045 82.5726C597.045 82.0078 596.692 81.6314 596.197 81.6941C595.702 81.8196 595.137 80.9412 594.854 79.6863L594.43 77.4902L594.218 79.3726C594.147 80.502 593.935 80.8157 593.723 80.1882C593.582 79.5608 593.087 79.0588 592.734 79.0588C592.31 79.0588 592.31 78.6196 592.804 77.8667C593.723 76.298 593.723 75.7333 592.734 76.298C592.31 76.4863 591.673 76.298 591.32 75.8588C590.896 75.2314 590.684 75.5451 590.684 76.8627L590.613 78.7451L589.694 77.2392C588.846 75.8588 588.776 75.9843 589.058 78.8706C589.27 80.8157 589.129 82.1961 588.634 82.4471C588.139 82.7608 587.857 82.3216 587.786 81.4431V80L587.15 81.3804C586.655 82.3843 586.019 82.7608 584.888 82.6353C583.616 82.4471 583.192 81.8824 582.838 79.9373L582.414 77.4902L582.202 80C582.061 81.6941 581.919 82.0078 581.707 81.0667C581.495 80.251 580.93 79.4353 580.364 79.2471C579.799 79.0588 579.375 78.3686 579.375 77.6784C579.375 77.051 579.092 76.6745 578.668 76.8627C578.315 77.051 577.961 76.6745 577.961 75.9843C577.961 75.2314 577.679 74.6667 577.325 74.6667C577.042 74.6667 576.406 73.4745 575.982 71.9686C575.205 69.3961 575.205 69.3961 575.417 73.4118C575.558 75.6706 575.417 78.1804 575.134 79.0588C574.71 80.251 574.569 79.749 574.498 77.051L574.427 73.5373L572.378 75.3569C569.974 77.4275 568.773 77.6784 568.702 76.0471C568.631 75.3569 568.419 75.5451 568.137 76.549C567.642 77.9922 567.501 77.8039 566.37 74.7922C565.663 72.9726 564.956 71.5294 564.815 71.6549C564.673 71.7804 564.885 73.7255 565.309 75.9216C566.228 81.1294 565.804 82.0078 563.401 79.8745C562.058 78.6824 561.422 78.4314 560.998 78.9961C560.362 80 559.655 78.4941 559.514 76.0471L559.443 74.3529L558.948 76.1726C558.241 79.1843 557.04 78.7451 556.262 75.1686C555.555 71.8431 555.555 71.8431 555.414 74.3529C555.414 75.7333 554.849 77.4902 554.283 78.2431C553.506 79.1843 553.435 79.6235 554.071 79.8118C554.566 80 554.707 80.6902 554.354 81.7569C553.788 83.9529 552.516 83.3882 552.516 80.8784C552.516 79.8745 552.233 79.0588 551.809 79.0588C551.456 79.0588 551.103 78.3686 551.103 77.5529C551.103 75.9843 549.76 74.5412 549.618 76.0471C549.618 76.4863 549.123 75.8588 548.629 74.6667C547.781 72.6588 547.71 72.8471 548.063 77.7412C548.417 81.6941 548.275 82.8863 547.71 82.5726C547.215 82.3216 546.862 80.8157 546.791 79.1843L546.72 76.2353L545.801 79.3726C545.307 81.0667 544.883 82.1333 544.812 81.6941C544.741 80.9412 540.783 79.2471 539.652 79.5608C539.44 79.6235 538.097 77.7412 536.754 75.4196C533.22 69.3961 530.605 65.5059 530.605 66.1333C530.605 66.4471 531.1 68.3294 531.736 70.3373C532.796 73.6627 532.796 73.9765 531.665 75.5451C530.958 76.4235 530.181 77.1765 529.898 77.1765C529.615 77.1765 529.05 75.6706 528.697 73.851L527.99 70.5882L527.848 74.9804C527.778 78.8706 527.636 79.4353 526.435 79.498C525.516 79.5608 524.809 78.9961 524.314 77.9294L523.678 76.2353L523.608 77.9922C523.466 81.2549 522.123 79.0588 522.123 75.5451C522.123 73.6627 521.841 72.1569 521.417 72.1569C521.063 72.1569 520.639 70.9647 520.639 69.4588C520.498 66.949 520.498 66.949 520.003 70.2745C519.72 72.2196 519.155 74.4157 518.66 75.2314C517.812 76.6118 517.741 76.6118 516.752 75.4824C515.833 74.4784 515.833 74.5412 516.469 76.1098C517.529 78.8078 517.317 79.3726 515.762 77.7412L514.419 76.2353L514.278 78.1176C514.207 79.8118 514.136 79.6863 513.288 77.1765C512.581 75.1059 512.369 74.7922 512.299 75.9216C512.228 76.8627 511.804 77.9294 511.38 78.3686C510.673 79.0588 510.673 79.1843 511.38 78.8078C512.369 78.3059 512.581 80.7529 511.592 82.1333C510.602 83.5137 509.33 82.3216 509.825 80.502C510.178 79.3726 510.108 78.9961 509.471 79.3098C508.977 79.5608 508.411 79.1843 508.058 78.3059C507.563 77.302 507.351 77.1765 507.351 77.9294C507.28 78.4941 506.927 79.1843 506.503 79.3726C506.079 79.6235 505.867 79.4353 505.937 78.9961C506.22 76.9882 504.948 74.1647 503.464 73.5373C501.979 72.9726 501.909 73.0353 502.191 74.4157C502.615 76.4235 501.909 76.298 500.566 74.1647C499.435 72.5333 499.647 73.2863 501.131 76.6745C501.767 78.1176 501.697 78.5569 500.495 79.498C499.647 80.1255 498.869 81.0667 498.587 81.5686C498.375 82.1333 498.162 81.9451 498.162 80.9412C498.092 79.749 497.95 79.5608 497.385 80.3137C497.032 80.8157 496.678 81.0667 496.537 80.9412C495.335 79.3098 494.558 77.6157 494.558 76.8627C494.558 76.298 494.275 76.0471 493.851 76.2353C493.427 76.4235 493.144 78.3686 493.073 80.502C493.073 82.6353 492.791 84.9569 492.437 85.6471C492.013 86.7137 491.801 86.4627 491.377 84.3922C491.094 83.0118 490.176 80.4392 489.327 78.7451C488.479 76.9882 487.419 74.9176 486.995 74.0392C486.359 72.7216 486.288 73.098 486.429 76.2353C486.571 79.2471 486.5 79.498 486.147 77.4902C485.581 74.7294 485.44 74.9804 484.168 80.6275L483.602 83.1373L483.39 80.1255C483.178 77.1765 482.33 76.298 481.552 78.1804C481.34 78.6824 480.846 78.9333 480.422 78.7451C479.715 78.3686 479.432 79.1216 479.644 81.0667C479.927 83.1373 477.1 83.0118 474.343 80.8157C472.929 79.6863 471.445 78.7451 471.021 78.7451C470.526 78.7451 469.961 77.8667 469.749 76.8627C469.466 75.6706 469.254 75.4196 469.183 76.2353C469.113 77.302 468.971 77.3647 468.406 76.549C468.052 76.0471 467.699 75.9216 467.699 76.298C467.699 76.6118 467.275 77.4902 466.709 78.1176C465.791 79.2471 465.649 79.1216 465.084 76.549L464.377 73.7255L463.599 76.3608C462.893 78.5569 462.469 78.8706 461.267 78.6196C459.853 78.2431 459.783 77.9294 460.136 74.5412C460.489 71.2784 460.419 70.9647 459.5 71.9686C458.652 73.0353 458.581 72.9726 458.44 71.2157C458.369 69.898 458.157 70.2745 457.733 72.5333C457.45 74.2902 456.673 76.4863 456.107 77.4902L455.047 79.2471L454.623 76.8C453.987 73.4118 453.704 72.8471 453.633 74.7922C453.492 77.7412 452.29 76.7373 451.372 72.9726L450.453 69.3333L449.887 71.8431C448.968 75.8588 448.968 75.8588 446.212 75.2941C444.021 74.8549 443.667 74.9804 443.667 75.9843C443.667 76.6118 443.031 77.4275 442.254 77.8039C441.052 78.3686 440.84 78.1804 440.204 76.1098C439.78 74.7922 439.427 73.2863 439.427 72.7843C439.356 71.3412 437.306 75.8588 437.306 77.4275C437.306 79.3098 436.882 79.5608 434.832 79.1843C433.136 78.9333 433.065 78.7451 433.065 73.5373C433.065 67.3255 432.217 67.3882 431.016 73.7255C429.814 80.0627 429.107 80.502 428.542 75.2314C428.33 72.7216 427.835 69.9608 427.623 69.0824L427.128 67.451L426.633 69.3333C426.351 70.3373 426.139 72.1569 426.068 73.349C426.068 74.5412 425.29 76.7373 424.442 78.2431C423.17 80.502 422.746 80.8157 422.392 79.8745C422.039 79.1843 421.827 79.8745 421.756 81.8824C421.615 85.0824 420.555 89.6627 420.413 87.7804C420.413 87.2157 419.848 86.5255 419.212 86.3373C418.434 86.0863 418.152 85.2078 418.222 83.0118C418.434 78.2431 418.293 77.051 417.586 77.4902C417.233 77.6784 416.738 77.051 416.597 76.1098C416.385 74.8549 416.314 75.1059 416.172 76.9882C416.102 79.8118 414.688 80.8157 414.688 78.1176C414.688 77.2392 414.405 76.549 413.981 76.549C413.628 76.549 413.275 77.4275 413.275 78.5569C413.275 81.5059 412.285 80.0627 411.79 76.3608L411.366 73.098L411.225 75.9216C411.154 77.9922 410.942 78.4941 410.447 77.8039C409.882 77.051 409.741 77.2392 409.741 78.5569C409.741 79.5608 409.458 80.3137 409.034 80.3137C408.68 80.3137 408.327 79.5608 408.256 78.5569L408.186 76.8627L407.62 78.4314L407.055 80L406.913 78.4314C406.772 77.051 406.701 77.1137 405.994 79.0588C405.429 80.6902 405.217 80.9412 404.934 80.0627C404.722 79.1216 404.51 79.0588 404.015 79.749C403.591 80.3765 403.379 80 403.379 78.4941C403.379 77.302 403.167 76.549 402.884 76.8C402.602 77.051 401.824 76.1726 401.188 74.8549L400.057 72.4706L399.28 76.6118C398.785 78.8706 398.432 81.4431 398.361 82.2588C398.29 83.702 398.29 83.702 397.301 81.8824C396.311 80.0627 396.311 80.1255 396.735 83.5137C397.018 85.7726 396.877 87.2157 396.382 87.4667C395.392 88.0314 394.685 85.3333 395.039 82.5098C395.18 81.3176 395.039 80.3137 394.756 80.3137C394.473 80.3137 394.191 79.6863 394.12 78.8706C394.049 77.8667 393.837 78.0549 393.343 79.6863C392.706 81.6941 392.565 81.7569 391.717 80.7529C390.798 79.6235 390.798 79.6235 390.445 80.7529C390.162 81.6314 390.091 81.6314 390.021 80.4392C390.021 79.6863 389.596 79.0588 389.172 79.0588C388.748 79.0588 388.607 79.6235 388.89 80.3765C389.243 81.3176 389.172 81.5686 388.607 81.3176C388.183 81.0667 387.829 80.251 387.759 79.498C387.688 78.7451 387.335 79.3726 386.981 80.9412C386.557 82.5098 386.062 83.3882 385.921 83.0118C385.214 81.2549 384.366 82.3216 384.649 84.5176C384.861 85.8353 384.79 86.4 384.578 85.8353C384.154 84.5176 383.164 84.3922 382.67 85.4588C382.458 85.898 382.246 85.5216 382.246 84.5176C382.175 83.5765 382.528 82.8235 382.882 82.8235C383.306 82.8235 383.589 82.5726 383.589 82.3216C383.589 81.3176 381.468 81.7569 381.397 82.7608C381.397 83.3255 380.903 82.8863 380.408 81.8824C379.63 80.3765 379.418 80.251 379.277 81.2549C379.206 82.0078 378.853 81.5686 378.287 80L377.369 77.4902L377.298 81.7569C377.227 84.7059 376.874 86.3373 376.167 86.9647C375.248 87.8431 375.107 87.5922 374.965 84.8941C374.895 83.2627 374.895 80.9412 374.965 79.8118C375.107 76.9882 373.905 77.8667 373.34 80.9412C372.845 83.6392 371.643 84.3294 371.502 82.0078C371.431 80.6902 371.431 80.6902 370.866 82.1961C370.583 83.0745 370.513 84.4549 370.725 85.3333L371.078 86.902L369.24 85.3961C368.251 84.5804 366.908 82.698 366.342 81.1922C365.777 79.6863 364.929 78.1176 364.505 77.6784C364.081 77.2392 363.303 76.298 362.738 75.6078C361.889 74.6039 361.889 74.9176 362.808 77.3647C363.656 79.5608 363.798 80.8157 363.232 81.7569C362.667 83.0118 362.526 82.8235 361.889 80.3137L361.253 77.4902L360.193 81.5686C359.486 84.3922 358.85 85.7098 358.002 85.8353C356.659 86.0863 354.397 82.7608 355.033 81.3804C355.175 80.9412 354.892 80.1882 354.327 79.749C353.408 79.0588 353.196 79.3726 352.489 81.4431C351.853 83.702 349.662 85.6471 349.662 84.0157C349.662 83.1373 351.146 80.6902 351.994 80.251C352.348 80 352.418 79.498 352.135 79.1216C351.853 78.6196 351.005 79.2471 349.803 80.8784C348.813 82.2588 347.824 83.2627 347.683 83.1373C347.471 83.0118 346.976 81.3804 346.41 79.5608L345.562 76.2353L345.491 78.7451C345.421 80.502 345.209 81.0039 344.785 80.3765C344.361 79.749 342.876 79.4353 340.473 79.4353C338.07 79.4353 336.586 79.749 336.162 80.3765C335.737 81.0039 335.525 80.502 335.455 78.7451L335.384 76.2353L334.536 79.5608C333.97 81.3804 333.476 83.0118 333.264 83.1373C333.122 83.2627 332.133 82.2588 331.143 80.8784C329.942 79.2471 329.093 78.6196 328.811 79.1216C328.528 79.498 328.599 80 328.952 80.251C329.8 80.6902 331.285 83.1373 331.285 84.0157C331.285 85.6471 329.093 83.702 328.457 81.4431C327.751 79.3726 327.539 79.0588 326.62 79.749C326.054 80.1882 325.771 80.9412 325.913 81.3804C326.549 82.7608 324.287 86.0863 322.944 85.8353C322.096 85.7098 321.389 84.3294 320.612 81.2549C319.764 78.1176 319.41 77.4275 319.269 78.7451C319.198 79.749 318.915 81.1922 318.562 81.8824C317.431 84.4549 317.007 80.1255 318.138 77.1765C319.057 74.7922 319.057 74.5412 318.209 75.6078C317.643 76.298 316.866 77.2392 316.442 77.6784C316.017 78.1176 315.169 79.6863 314.604 81.1922C314.038 82.698 312.695 84.5804 311.706 85.3961L309.868 86.902L310.222 85.3333C310.434 84.4549 310.363 83.0745 310.08 82.1961C309.515 80.6902 309.515 80.6902 309.444 82.0078C309.303 84.3294 308.101 83.6392 307.606 80.9412C307.041 77.8667 305.839 76.9882 305.981 79.8118C306.051 80.9412 306.051 83.2627 305.981 84.8941C305.839 87.5922 305.698 87.8431 304.779 86.9647C304.072 86.3373 303.719 84.7059 303.648 81.7569L303.578 77.4902L302.659 80C302.093 81.5686 301.74 82.0078 301.669 81.2549C301.528 80.251 301.316 80.3765 300.538 81.8824C300.044 82.8863 299.549 83.3255 299.549 82.7608C299.478 81.7569 297.358 81.3176 297.358 82.3216C297.358 82.5726 297.711 82.8235 298.065 82.8235C298.489 82.8235 298.771 83.5765 298.701 84.5176C298.701 85.5216 298.489 85.898 298.277 85.4588C297.782 84.3922 296.792 84.5176 296.368 85.7726C296.156 86.4 296.085 85.8353 296.297 84.5176C296.58 82.3216 295.732 81.2549 295.025 82.949C294.884 83.3882 294.389 82.5098 293.965 80.9412C293.612 79.3726 293.258 78.7451 293.188 79.498C293.117 80.251 292.763 81.0667 292.339 81.3176C291.774 81.5686 291.703 81.3176 292.057 80.3765C292.339 79.6235 292.198 79.0588 291.774 79.0588C291.35 79.0588 290.926 79.6863 290.926 80.4392C290.855 81.6314 290.784 81.6314 290.502 80.7529C290.148 79.6235 290.148 79.6235 289.229 80.7529C288.381 81.7569 288.24 81.6941 287.604 79.6863C287.109 78.0549 286.897 77.8667 286.826 78.8706C286.756 79.6863 286.473 80.3137 286.19 80.3137C285.907 80.3137 285.766 81.3176 285.907 82.5098C286.261 85.3333 285.554 88.0314 284.564 87.4667C284.07 87.2157 283.928 85.7726 284.211 83.5137C284.635 80.1255 284.635 80.0627 283.646 81.8824C282.656 83.702 282.656 83.702 282.585 82.2588C282.515 81.4431 282.161 78.8706 281.667 76.6118L280.889 72.4706L279.758 74.8549C279.122 76.1726 278.345 77.051 278.062 76.8C277.779 76.549 277.567 77.302 277.567 78.4941C277.567 80 277.355 80.3765 276.931 79.749C276.436 79.0588 276.224 79.1216 276.012 80.0627C275.729 80.9412 275.517 80.6902 274.952 79.0588C274.245 77.1137 274.174 77.051 274.033 78.4314L273.892 80L273.326 78.4314L272.761 76.8627L272.69 78.5569C272.619 79.5608 272.337 80.3137 271.913 80.3137C271.559 80.3137 271.206 79.5608 271.206 78.5569C271.206 77.2392 271.064 77.051 270.499 77.8039C270.004 78.4941 269.792 77.9922 269.721 75.9216L269.58 73.098L269.156 76.3608C268.661 80.0627 267.672 81.5059 267.672 78.5569C267.672 77.4275 267.389 76.549 266.965 76.549C266.611 76.549 266.258 77.2392 266.258 78.1176C266.258 80.8157 264.844 79.8118 264.774 76.9882C264.632 75.1059 264.562 74.8549 264.35 76.1098C264.208 77.051 263.714 77.6784 263.36 77.4902C262.653 77.051 262.512 78.2431 262.724 83.0118C262.795 85.2078 262.512 86.0863 261.734 86.3373C261.098 86.5255 260.533 87.2157 260.533 87.7804C260.392 89.6627 259.331 85.0824 259.19 81.8824C259.119 79.8745 258.907 79.1843 258.554 79.8745C258.2 80.8157 257.776 80.502 256.504 78.2431C255.656 76.7373 254.878 74.5412 254.878 73.349C254.808 72.1569 254.596 70.3373 254.313 69.3333L253.818 67.451L253.323 69.0824C253.111 69.9608 252.617 72.7216 252.405 75.2314C251.839 80.502 251.132 80.0627 249.931 73.7255C248.729 67.3882 247.881 67.3255 247.881 73.5373C247.881 78.7451 247.81 78.9333 246.114 79.1843C244.064 79.5608 243.64 79.3098 243.64 77.4275C243.64 75.8588 241.59 71.3412 241.52 72.7843C241.52 73.2863 241.166 74.7922 240.742 76.1098C240.106 78.1804 239.894 78.3686 238.692 77.8039C237.915 77.4275 237.279 76.6118 237.279 75.9843C237.279 74.9804 236.925 74.8549 234.734 75.2941C231.978 75.8588 231.978 75.8588 231.059 71.8431L230.493 69.3333L229.575 72.9726C228.656 76.7373 227.454 77.7412 227.313 74.7922C227.242 72.8471 226.959 73.4118 226.323 76.8L225.899 79.2471L224.839 77.4902C224.274 76.4863 223.496 74.2902 223.213 72.5333C222.789 70.2745 222.577 69.898 222.507 71.2157C222.365 72.9726 222.294 73.0353 221.446 71.9686C220.527 70.9647 220.457 71.2784 220.81 74.5412C221.164 77.9294 221.093 78.2431 219.679 78.6196C218.478 78.8706 218.054 78.5569 217.347 76.3608L216.569 73.7255L215.863 76.549C215.297 79.1216 215.156 79.2471 214.237 78.1176C213.671 77.4902 213.247 76.6118 213.247 76.298C213.247 75.9216 212.894 76.0471 212.541 76.549C211.975 77.3647 211.834 77.302 211.763 76.2353C211.692 75.4196 211.48 75.6706 211.198 76.8627C210.986 77.8667 210.42 78.7451 209.925 78.7451C209.501 78.7451 208.017 79.6863 206.603 80.8157C204.766 82.3216 203.635 82.7608 202.574 82.5098C201.373 82.1333 201.232 81.6941 201.514 79.1843C201.797 76.7373 201.726 76.4863 201.161 77.8039C200.454 79.2471 200.383 79.3098 199.535 78.2431C198.122 76.6118 197.768 76.9255 197.556 80.1255L197.344 83.1373L196.779 80.6275C195.506 74.9804 195.365 74.7294 194.8 77.4902C194.446 79.498 194.375 79.2471 194.517 76.2353C194.658 73.098 194.588 72.7216 193.951 74.0392C193.527 74.9176 192.467 76.9882 191.619 78.7451C190.771 80.4392 189.852 83.0118 189.569 84.3922C189.145 86.4627 188.933 86.7137 188.509 85.6471C188.156 84.9569 187.873 82.6353 187.873 80.502C187.802 78.3686 187.519 76.4235 187.095 76.2353C186.742 76.0471 186.389 76.298 186.389 76.8627C186.389 77.6157 185.611 79.3098 184.409 80.9412C184.268 81.0667 183.915 80.8157 183.561 80.3137C182.996 79.5608 182.854 79.749 182.784 80.9412C182.784 81.9451 182.572 82.1333 182.36 81.5686C182.077 81.0667 181.299 80.1255 180.451 79.498C179.25 78.5569 179.179 78.1176 179.815 76.6745C181.299 73.2863 181.512 72.5333 180.381 74.1647C179.038 76.298 178.331 76.4235 178.755 74.4157C179.038 73.0353 178.967 72.9726 177.483 73.5373C176.069 74.102 174.797 76.8 174.868 78.8706C174.868 79.3098 174.655 79.498 174.302 79.3098C173.949 79.1216 173.666 78.4941 173.595 77.9294C173.595 77.1765 173.383 77.302 172.888 78.3059C172.535 79.1843 171.97 79.5608 171.475 79.3098C170.839 78.9961 170.768 79.3726 171.121 80.502C171.616 82.3216 170.344 83.5137 169.354 82.1333C168.365 80.7529 168.577 78.3059 169.637 78.8078C170.344 79.1843 170.344 79.0588 169.637 78.3686C169.142 77.9294 168.718 76.8627 168.648 75.9216C168.577 74.7922 168.365 75.1059 167.658 77.1765C166.81 79.6863 166.739 79.8118 166.669 78.1176L166.527 76.2353L165.184 77.7412C163.629 79.3726 163.417 78.8078 164.477 76.1098C165.114 74.5412 165.114 74.4784 164.195 75.4824C163.205 76.6118 163.134 76.6118 162.286 75.2314C161.792 74.4157 161.226 72.2196 160.943 70.2745C160.449 66.949 160.449 66.949 160.307 69.4588C160.307 70.9647 159.954 72.1569 159.53 72.1569C159.176 72.1569 158.823 73.6627 158.823 75.5451C158.823 79.0588 157.48 81.2549 157.339 77.9922L157.268 76.2353L156.632 77.9294C156.137 78.9961 155.43 79.5608 154.511 79.498C153.31 79.4353 153.168 78.8706 153.098 74.9804L152.956 70.5882L152.25 73.851C151.896 75.6706 151.331 77.1765 151.048 77.1765C150.765 77.1765 149.988 76.4235 149.281 75.5451C148.15 73.9765 148.15 73.6627 149.21 70.3373C149.846 68.3294 150.341 66.4471 150.341 66.1333C150.341 65.5059 147.726 69.3961 144.192 75.4196C142.849 77.7412 141.506 79.6235 141.294 79.5608C140.163 79.2471 136.205 80.9412 136.134 81.6941C136.064 82.1333 135.64 81.0667 135.145 79.3726L134.226 76.2353L134.155 79.1843C134.085 80.8157 133.731 82.3216 133.236 82.5726C132.671 82.8863 132.53 81.6941 132.883 77.7412C133.236 72.8471 133.166 72.6588 132.318 74.6667C131.823 75.8588 131.328 76.4863 131.328 76.0471C131.187 74.5412 129.844 75.9843 129.844 77.5529C129.844 78.8706 129.561 79.1216 128.289 78.9333C127.229 78.8078 126.734 78.3686 126.734 77.6784C126.804 77.051 126.592 76.7373 126.239 76.9255C125.886 77.1137 125.532 76.0471 125.532 74.5412L125.391 71.8431L124.684 75.1686C123.907 78.7451 122.705 79.1843 121.998 76.1726L121.503 74.3529L121.433 76.0471C121.291 78.4941 120.585 80 119.948 78.9961C119.524 78.4314 118.888 78.6824 117.545 79.8745C116.556 80.7529 115.566 81.1922 115.354 80.8784C114.93 80.3137 115.425 75.6078 116.202 73.098C116.909 70.8392 115.213 72.9726 114.223 75.6078C113.375 77.9922 113.304 78.0549 112.81 76.549C112.527 75.5451 112.315 75.3569 112.244 76.0471C112.173 77.6784 110.972 77.4275 108.569 75.3569L106.519 73.5373L106.448 77.051C106.378 79.749 106.236 80.251 105.812 79.0588C105.529 78.1804 105.388 75.6706 105.529 73.4118C105.742 69.3961 105.742 69.3961 104.964 71.9686C104.54 73.4745 103.904 74.6667 103.621 74.6667C103.268 74.6667 102.985 75.2314 102.985 75.9843C102.985 76.6745 102.702 77.051 102.278 76.8627C101.925 76.6745 101.571 77.051 101.571 77.6784C101.571 78.3686 101.147 79.0588 100.582 79.2471C100.016 79.4353 99.4509 80.251 99.2389 81.0667C99.0268 82.0078 98.8855 81.6941 98.7441 80L98.532 77.4902L98.108 79.9373C97.7546 81.8824 97.3305 82.4471 96.0582 82.6353C94.9273 82.7608 94.2912 82.3843 93.7964 81.3804L93.1603 80V81.4431C93.0896 82.3216 92.8069 82.7608 92.3121 82.4471C91.8174 82.1961 91.676 80.8157 91.888 78.8706C92.1708 75.9843 92.1001 75.8588 91.2519 77.2392L90.3331 78.7451L90.2624 76.8627C90.2624 75.5451 90.0503 75.2314 89.6262 75.8588C89.2728 76.298 88.6367 76.4863 88.2126 76.298C87.2231 75.7333 87.2231 76.298 88.1419 77.8667C88.6367 78.6196 88.6367 79.0588 88.2126 79.0588C87.8592 79.0588 87.3644 79.5608 87.2231 80.1255C87.011 80.8157 86.799 80.502 86.7283 79.3726L86.5163 77.4902L86.0922 79.6863C85.8095 80.9412 85.244 81.8196 84.7493 81.6941C84.2545 81.6314 83.9011 82.0078 83.9011 82.5726C83.9011 83.451 83.689 83.451 82.7702 82.8235C82.2047 82.3216 81.7806 81.2549 81.8513 80.3765C81.9927 79.498 81.71 78.1804 81.2152 77.4902C80.4377 76.298 80.4377 76.298 80.367 77.8667C80.367 80.502 79.3775 80.5647 78.4586 77.9922C77.8225 76.0471 77.6105 75.8588 77.5398 77.1765C77.4691 78.6196 77.3277 78.5569 76.4089 76.549C75.49 74.4784 75.49 74.7294 75.8434 80L76.3382 85.6471L74.7832 84.4549C74.0057 83.7647 73.2989 82.8235 73.2989 82.2588C73.2989 81.4431 73.1576 81.4431 72.6628 82.1333C71.6733 83.5137 70.4717 82.3216 70.4717 79.8118L70.401 77.4902L69.4822 79.3726C68.634 81.1294 68.5633 81.1922 67.7858 80C67.2204 79.0588 66.9376 78.9961 66.867 79.6863C66.7963 80.1882 66.3722 79.1843 65.8774 77.4902C65.3827 75.7333 64.8879 74.9176 64.8879 75.6078C64.8172 76.298 64.4638 77.302 64.0397 77.8039C63.545 78.4941 63.4743 77.4902 63.6863 74.3529L64.1104 69.9608L62.1313 73.6C60.5763 76.4235 60.0109 77.051 59.3041 76.4235C58.8093 75.9843 58.4559 74.9804 58.4559 74.0392C58.4559 73.1608 58.1732 71.7804 57.8905 70.902C57.4664 69.5843 57.325 69.8353 56.9716 72.4706C56.6182 74.9176 56.5475 74.2902 56.4062 69.3333L56.1941 63.0588L55.2753 66.0706C54.0737 69.9608 53.5082 70.4 53.4376 67.702C53.3669 66.5098 53.1548 64.6902 52.8721 63.6863L52.3773 61.8039L51.8119 64ZM109.7 77.9922C112.032 81.6314 111.961 82.5726 109.346 80.8157C107.721 79.8118 107.226 78.9333 107.226 77.3647C107.226 76.2353 107.367 75.2941 107.579 75.2941C107.721 75.2941 108.71 76.549 109.7 77.9922ZM149.634 77.8039C151.401 80.8157 151.401 80.9412 149.634 80.9412C148.857 80.9412 148.221 81.3804 148.221 81.8824C148.221 83.0118 146.878 83.1373 146.736 82.0078C146.524 80.251 147.373 75.2941 147.867 75.2941C148.079 75.2941 148.857 76.4235 149.634 77.8039ZM534.139 79.4353C534.21 80.4392 534.28 81.6314 534.21 82.0078C534.139 83.1373 532.725 83.0118 532.725 81.8824C532.725 81.3804 532.089 80.9412 531.312 80.9412C529.545 80.9412 529.545 80.8784 531.383 77.6157C532.796 75.2941 533.008 75.1059 533.432 76.298C533.786 76.9882 534.068 78.4314 534.139 79.4353ZM571.812 80.6902C569.126 82.5726 568.914 81.5686 571.388 77.9294L573.367 74.9804L573.579 77.1137C573.791 78.8078 573.438 79.498 571.812 80.6902ZM830.646 77.9922C832.978 81.6314 832.908 82.5726 830.292 80.8157C828.667 79.8118 828.172 78.9333 828.172 77.3647C828.172 76.2353 828.313 75.2941 828.525 75.2941C828.667 75.2941 829.656 76.549 830.646 77.9922ZM870.581 77.8039C872.348 80.8157 872.348 80.9412 870.581 80.9412C869.803 80.9412 869.167 81.3804 869.167 81.8824C869.167 83.0118 867.824 83.1373 867.683 82.0078C867.471 80.251 868.319 75.2941 868.814 75.2941C869.026 75.2941 869.803 76.4235 870.581 77.8039ZM236.572 76.8627C236.572 77.3647 236.289 77.8039 235.865 77.8039C235.512 77.8039 235.158 77.3647 235.158 76.8627C235.158 76.3608 235.512 75.9216 235.865 75.9216C236.289 75.9216 236.572 76.3608 236.572 76.8627ZM445.788 76.8627C445.788 77.3647 445.505 77.8039 445.081 77.8039C444.728 77.8039 444.374 77.3647 444.374 76.8627C444.374 76.3608 444.728 75.9216 445.081 75.9216C445.505 75.9216 445.788 76.3608 445.788 76.8627ZM957.518 76.8627C957.518 77.3647 957.236 77.8039 956.812 77.8039C956.458 77.8039 956.105 77.3647 956.105 76.8627C956.105 76.3608 956.458 75.9216 956.812 75.9216C957.236 75.9216 957.518 76.3608 957.518 76.8627ZM-10.246 80.8784C-9.68057 82.3216 -9.75125 82.8235 -10.4581 83.0745C-11.7303 83.5137 -12.2251 82.8863 -12.2251 80.8157C-12.2251 78.5569 -11.1649 78.5569 -10.246 80.8784ZM693.171 80.8157C693.171 82.8863 692.677 83.5137 691.404 83.0745C690.698 82.8235 690.627 82.3216 691.192 80.8784C692.111 78.5569 693.171 78.5569 693.171 80.8157ZM710.7 80.8784C711.266 82.3216 711.195 82.8235 710.488 83.0745C709.216 83.5137 708.721 82.8863 708.721 80.8157C708.721 78.5569 709.781 78.5569 710.7 80.8784ZM117.899 82.3843C117.333 82.8863 117.121 82.698 117.121 81.8196C117.121 80.1255 118.111 79.2471 118.393 80.6275C118.535 81.1922 118.323 82.0078 117.899 82.3843ZM128.43 81.1922C128.43 83.0745 127.37 83.8275 126.734 82.4471C126.027 80.7529 126.239 79.6863 127.37 79.6863C128.006 79.6863 128.43 80.251 128.43 81.1922ZM563.825 81.6314C563.825 82.3216 563.542 82.698 563.118 82.5098C562.765 82.3216 562.411 81.5686 562.411 80.8784C562.411 80.1882 562.765 79.8118 563.118 80C563.542 80.1882 563.825 80.9412 563.825 81.6314ZM838.845 82.3843C838.279 82.8863 838.067 82.698 838.067 81.8196C838.067 80.1255 839.057 79.2471 839.34 80.6275C839.481 81.1922 839.269 82.0078 838.845 82.3843ZM849.376 81.1922C849.376 83.0745 848.316 83.8275 847.68 82.4471C846.973 80.7529 847.185 79.6863 848.316 79.6863C848.952 79.6863 849.376 80.251 849.376 81.1922ZM339.06 81.5686C339.06 82.2588 338.777 82.8235 338.423 82.8235C337.999 82.8235 337.646 83.8902 337.505 85.1451C337.363 86.4627 337.01 87.5294 336.586 87.5294C335.384 87.5294 335.384 83.5765 336.656 81.9451C338.07 80 339.06 79.8745 339.06 81.5686ZM344.29 81.9451C345.562 83.5765 345.562 87.5294 344.361 87.5294C344.007 87.5294 343.583 86.4627 343.442 85.1451C343.3 83.8902 342.947 82.8235 342.523 82.8235C342.169 82.8235 341.887 82.2588 341.887 81.5686C341.887 79.8745 342.876 80 344.29 81.9451ZM23.6102 82.3216C23.3981 82.8235 23.1861 82.6353 23.1861 81.9451C23.1154 81.2549 23.3275 80.8784 23.5395 81.1294C23.7515 81.3176 23.8222 81.8824 23.6102 82.3216ZM199.606 82.3216C199.394 82.8235 199.182 82.6353 199.182 81.9451C199.111 81.2549 199.323 80.8784 199.535 81.1294C199.747 81.3176 199.818 81.8824 199.606 82.3216ZM208.088 82.5098C207.805 83.0118 207.31 83.451 206.886 83.451C206.462 83.451 206.462 83.0118 207.027 82.1961C208.017 80.8157 208.724 81.0039 208.088 82.5098ZM474.414 83.3255C473.848 83.8275 472.647 82.698 472.647 81.6941C472.647 80.8784 472.788 80.8784 473.636 81.9451C474.202 82.5726 474.555 83.2627 474.414 83.3255ZM481.623 82.3216C481.411 82.8235 481.199 82.6353 481.199 81.9451C481.128 81.2549 481.34 80.8784 481.552 81.1294C481.764 81.3176 481.835 81.8824 481.623 82.3216ZM657.619 82.3216C657.407 82.8235 657.195 82.6353 657.195 81.9451C657.124 81.2549 657.336 80.8784 657.548 81.1294C657.76 81.3176 657.831 81.8824 657.619 82.3216ZM744.556 82.3216C744.344 82.8235 744.132 82.6353 744.132 81.9451C744.062 81.2549 744.274 80.8784 744.486 81.1294C744.698 81.3176 744.768 81.8824 744.556 82.3216ZM920.552 82.3216C920.34 82.8235 920.128 82.6353 920.128 81.9451C920.057 81.2549 920.269 80.8784 920.481 81.1294C920.693 81.3176 920.764 81.8824 920.552 82.3216ZM929.034 82.5098C928.751 83.0118 928.256 83.451 927.832 83.451C927.408 83.451 927.408 83.0118 927.974 82.1961C928.963 80.8157 929.67 81.0039 929.034 82.5098ZM292.905 83.5765C292.693 84.0784 292.481 83.8902 292.481 83.2C292.41 82.5098 292.622 82.1333 292.834 82.3843C293.046 82.5726 293.117 83.1373 292.905 83.5765ZM388.324 83.5765C388.112 84.0784 387.9 83.8902 387.9 83.2C387.829 82.5098 388.041 82.1333 388.253 82.3843C388.466 82.5726 388.536 83.1373 388.324 83.5765ZM95.9168 84.4549C95.9168 84.9569 95.4221 85.8353 94.8566 86.3373C93.9378 87.2157 93.7964 87.0902 93.7964 85.3961C93.7964 84.0784 94.1498 83.451 94.8566 83.451C95.4221 83.451 95.9168 83.8902 95.9168 84.4549ZM170.627 84.8314C170.415 85.3333 170.203 85.1451 170.203 84.4549C170.132 83.7647 170.344 83.3882 170.556 83.6392C170.768 83.8275 170.839 84.3922 170.627 84.8314ZM510.602 84.8314C510.39 85.3333 510.178 85.1451 510.178 84.4549C510.108 83.7647 510.32 83.3882 510.532 83.6392C510.744 83.8275 510.814 84.3922 510.602 84.8314ZM587.15 85.3961C587.15 87.0902 587.008 87.2157 586.09 86.3373C585.524 85.8353 585.029 84.9569 585.029 84.4549C585.029 83.8902 585.524 83.451 586.09 83.451C586.796 83.451 587.15 84.0784 587.15 85.3961ZM816.863 84.4549C816.863 84.9569 816.368 85.8353 815.803 86.3373C814.884 87.2157 814.743 87.0902 814.743 85.3961C814.743 84.0784 815.096 83.451 815.803 83.451C816.368 83.451 816.863 83.8902 816.863 84.4549ZM891.573 84.8314C891.361 85.3333 891.149 85.1451 891.149 84.4549C891.078 83.7647 891.29 83.3882 891.502 83.6392C891.714 83.8275 891.785 84.3922 891.573 84.8314ZM127.511 85.4588C127.299 85.9608 127.087 85.7726 127.087 85.0824C127.016 84.3922 127.229 84.0157 127.441 84.2667C127.653 84.4549 127.723 85.0196 127.511 85.4588ZM553.718 85.4588C553.506 85.9608 553.294 85.7726 553.294 85.0824C553.223 84.3922 553.435 84.0157 553.647 84.2667C553.859 84.4549 553.93 85.0196 553.718 85.4588ZM848.458 85.4588C848.245 85.9608 848.033 85.7726 848.033 85.0824C847.963 84.3922 848.175 84.0157 848.387 84.2667C848.599 84.4549 848.67 85.0196 848.458 85.4588ZM299.973 86.0863C299.761 86.5882 299.549 86.4 299.549 85.7098C299.478 85.0196 299.69 84.6431 299.902 84.8941C300.114 85.0824 300.185 85.6471 299.973 86.0863ZM381.256 86.0863C381.044 86.5882 380.832 86.4 380.832 85.7098C380.761 85.0196 380.973 84.6431 381.185 84.8941C381.397 85.0824 381.468 85.6471 381.256 86.0863ZM307.748 87.3412C307.536 87.7804 307.394 87.4667 307.394 86.5882C307.394 85.7098 307.536 85.3961 307.748 85.7726C307.889 86.2118 307.889 86.9647 307.748 87.3412ZM331.497 86.9647C331.214 87.7176 330.931 87.7804 330.507 87.1529C329.871 86.2118 330.366 85.1451 331.285 85.6471C331.638 85.8353 331.709 86.4627 331.497 86.9647ZM350.581 86.9647C350.298 87.7176 350.015 87.7804 349.591 87.1529C348.955 86.2118 349.45 85.1451 350.368 85.6471C350.722 85.8353 350.793 86.4627 350.581 86.9647ZM373.481 87.3412C373.269 87.7804 373.128 87.4667 373.128 86.5882C373.128 85.7098 373.269 85.3961 373.481 85.7726C373.623 86.2118 373.623 86.9647 373.481 87.3412Z" fill="#116500"/>
</g>
<path d="M1501 64.1983C1501.45 65.3917 1502.68 69.5372 1503.69 73.4314C1504.69 77.3256 1506.04 80.4033 1506.71 80.3405C1507.27 80.2777 1507.83 79.2099 1507.72 78.0165L1507.61 75.8182L1509.29 78.1421C1511.75 81.6595 1514.55 81.3455 1516.34 77.3884C1517.79 74.0595 1519.92 74.3107 1518.8 77.6397C1518.35 78.8959 1518.47 79.3355 1519.36 79.0215C1520.15 78.7702 1520.48 79.2099 1520.37 80.2777C1520.15 81.5339 1520.71 81.9736 1522.5 82.162C1524.4 82.3504 1525.18 81.8479 1526.53 79.3983L1528.32 76.4463L1528.43 78.7702C1528.54 82.0992 1530.78 82.476 1530.78 79.1471C1530.78 77.2 1531.12 76.6975 1531.9 77.3884C1532.46 77.8909 1533.02 79.0843 1533.02 79.9636C1533.02 80.9686 1533.81 81.8479 1534.81 82.0364C1537.39 82.6017 1537.61 82.3504 1538.62 78.519C1539.52 75.1273 1539.63 75.1273 1540.3 78.1421C1540.52 79.1471 1541.08 80.5289 1541.53 81.2826C1542.2 82.476 1542.32 82.476 1543.32 81.5967C1544 80.9058 1543.88 80.0264 1542.99 79.1471C1541.64 77.7653 1541.76 77.7653 1543.77 78.6446C1544.89 79.1471 1546.24 79.838 1546.68 80.2149C1547.13 80.5289 1547.58 79.2727 1547.69 77.3884C1547.8 74.1223 1547.8 74.0595 1548.81 76.0066C1549.37 77.1372 1550.38 77.8909 1550.94 77.7025C1551.95 77.3256 1552.17 77.7653 1552.51 80.5289C1552.62 81.0314 1553.51 81.5339 1554.63 81.6595C1556.76 81.9107 1557.32 80.7802 1555.08 80.3405C1553.96 80.0893 1554.07 79.9636 1555.08 79.9636C1555.98 79.9008 1556.54 78.8331 1556.65 76.886C1556.76 73.8711 1556.98 74.0595 1558.22 78.1421C1558.66 79.6496 1559.45 80.5289 1560.46 80.5289C1561.35 80.5289 1562.13 80.1521 1562.13 79.6496C1562.13 79.1471 1562.69 78.519 1563.37 78.2678C1564.15 78.0165 1564.37 78.2678 1563.93 79.1471C1563.03 80.5917 1567.06 85.3653 1568.29 84.3603C1568.63 83.9835 1568.63 82.6017 1568.29 81.3455C1567.85 80.0264 1567.4 78.0793 1567.06 77.0744C1566.61 75.2529 1566.73 75.2529 1568.18 77.3884L1569.75 79.5868L1569.97 77.7025C1570.08 76.5719 1570.42 76.195 1570.87 76.7603C1571.32 77.3884 1571.99 76.8231 1572.88 75.1901L1574.23 72.6777L1574.45 74.876C1574.56 76.0694 1575.12 77.6397 1575.68 78.3306C1576.47 79.2727 1576.58 79.0843 1576.13 77.3884C1575.57 75.2529 1575.57 75.2529 1577.7 78.0165C1578.93 79.5868 1579.94 80.4033 1580.05 79.9008C1580.16 79.2727 1580.5 79.3355 1581.17 80.2149C1583.52 83.2926 1582.29 79.2099 1578.26 70.7934C1577.81 69.7884 1577.92 69.7256 1578.82 70.4793C1579.49 70.9818 1580.61 72.5521 1581.28 73.9339C1581.95 75.3157 1583.07 76.6347 1583.63 76.8231C1584.3 77.0744 1585.09 78.519 1585.31 80.1521C1586.21 84.2347 1587.89 84.4231 1587.89 80.4033C1587.89 78.0165 1587.55 77.3256 1586.77 78.0165C1586.1 78.5818 1585.65 78.6446 1585.65 78.205C1585.65 76.9488 1587.66 76.6975 1588.9 77.8281C1589.9 78.8331 1590.02 78.8331 1590.13 77.8909C1590.13 77.3256 1589.57 76.0694 1589.01 75.0645C1588 73.4314 1588 73.4314 1589.46 74.4992C1591.02 75.6298 1591.14 75.5669 1591.81 73.8711C1593.15 70.6678 1593.26 70.7306 1593.49 74.2479C1593.6 76.7603 1593.93 77.3884 1594.61 76.4463C1595.28 75.5041 1595.61 76.1322 1595.61 78.6446L1595.73 82.0992L1598.08 79.9636C1599.98 78.205 1600.2 77.5141 1599.2 76.195C1598.08 74.7504 1598.08 74.6876 1599.42 75.6298C1601.66 77.2 1602.11 77.0116 1601.66 74.6876L1601.32 72.6777L1603 74.562C1604.35 76.1322 1604.57 76.195 1604.68 75.1273C1604.68 72.5521 1606.36 72.9917 1607.59 75.9438C1608.83 78.8959 1608.94 78.8959 1609.16 76.7603C1609.27 75.5669 1609.61 74.9388 1609.95 75.3157C1610.73 76.5091 1613.42 76.3207 1613.98 75.0017C1614.31 74.4364 1614.54 79.7752 1614.65 86.9355L1614.76 100H808.577H2.39417L2.5061 89.4479C2.5061 83.481 2.95398 79.524 3.40186 80.2149C4.29761 81.3455 4.52161 81.2198 5.5293 79.2727C6.53699 77.3256 6.64905 77.2628 6.87292 78.6446L7.09692 80.2149L7.99268 78.6446L8.88843 77.0744L9.00037 78.7702C9.1123 79.7752 9.56018 80.5289 10.2321 80.5289C10.7919 80.5289 11.3517 79.7752 11.3517 78.7702C11.3517 77.4512 11.5757 77.2628 12.4714 78.0165C13.2552 78.7074 13.5912 78.205 13.7031 76.1322L13.927 73.3058L14.5989 76.5719C15.3827 80.2777 16.9502 81.7223 16.9502 78.7702C16.9502 77.6397 17.3981 76.7603 18.0699 76.7603C18.6298 76.7603 19.1896 77.4512 19.1896 78.3306C19.1896 81.0314 21.4291 80.0264 21.541 77.2C21.7649 75.3157 21.877 75.0645 22.2128 76.3207C22.4368 77.2628 23.2206 77.8909 23.7804 77.7025C24.9001 77.2628 25.124 78.4562 24.7881 83.2298C24.6761 85.4281 25.124 86.3074 26.3557 86.5587C27.3634 86.7471 28.2592 87.438 28.2592 88.0033C28.4832 89.8876 30.1627 85.3025 30.3866 82.0992C30.4985 80.0893 30.8345 79.3983 31.3943 80.0893C31.9542 81.0314 32.626 80.7174 34.6415 78.4562C35.9851 76.9488 37.2168 74.7504 37.2168 73.557C37.3287 72.3636 37.6647 70.5422 38.1125 69.5372L38.8964 67.6529L39.6802 69.286C40.016 70.1653 40.7998 72.9289 41.1357 75.4413C42.0315 80.7174 43.1511 80.2777 45.0547 73.9339C46.9581 67.5901 48.3018 67.5273 48.3018 73.7455C48.3018 78.9587 48.4138 79.1471 51.1011 79.3983C54.3481 79.7752 55.02 79.524 55.02 77.6397C55.02 76.0694 58.2671 71.5471 58.379 72.9917C58.379 73.4942 58.939 75.0017 59.6107 76.3207C60.6185 78.3934 60.9543 78.5818 62.8579 78.0165C64.0896 77.6397 65.0973 76.8231 65.0973 76.195C65.0973 75.1901 65.6571 75.0645 69.1282 75.5041C73.495 76.0694 73.495 76.0694 74.9507 72.0496L75.8464 69.5372L77.302 73.1802C78.7576 76.9488 80.6611 77.9537 80.885 75.0017C80.9971 73.0545 81.4449 73.6198 82.4526 77.0116L83.1244 79.4612L84.804 77.7025C85.6997 76.6975 86.9314 74.4992 87.3793 72.7405C88.0511 70.4793 88.387 70.1025 88.499 71.4215C88.7229 73.1802 88.835 73.243 90.1786 72.1752C91.6342 71.1702 91.7461 71.4843 91.1863 74.7504C90.6265 78.1421 90.7384 78.4562 92.9778 78.8331C94.8812 79.0843 95.5531 78.7702 96.6729 76.5719L97.9044 73.9339L99.0242 76.7603C99.9199 79.3355 100.144 79.4612 101.599 78.3306C102.495 77.7025 103.167 76.8231 103.167 76.5091C103.167 76.1322 103.727 76.2579 104.287 76.7603C105.182 77.5769 105.406 77.5141 105.518 76.4463C105.63 75.6298 105.966 75.881 106.414 77.0744C106.75 78.0793 107.646 78.9587 108.43 78.9587C109.101 78.9587 111.453 79.9008 113.692 81.0314C116.603 82.5388 118.395 82.9785 120.074 82.7273C121.978 82.3504 122.202 81.9107 121.754 79.3983C121.306 76.9488 121.418 76.6975 122.314 78.0165C123.434 79.4612 123.546 79.524 124.889 78.4562C127.129 76.8231 127.688 77.1372 128.024 80.4033L128.36 83.3554L129.256 80.843C131.271 75.1901 131.495 74.9388 132.391 77.7025C132.951 79.7124 133.063 79.4612 132.839 76.4463C132.615 73.3058 132.727 72.9289 133.735 74.2479C134.407 75.1273 136.086 77.2 137.43 78.9587C138.773 80.6545 140.229 83.2298 140.677 84.6116C141.349 86.6843 141.685 86.9355 142.357 85.8678C142.916 85.1769 143.364 82.8529 143.364 80.7174C143.476 78.5818 144.036 76.6347 144.596 76.4463C145.268 76.2579 145.716 76.5091 145.716 77.0744C145.716 77.8281 146.947 79.524 148.851 81.157C149.075 81.2826 149.635 81.0314 150.194 80.5289C151.09 79.7752 151.314 79.9636 151.426 81.157C151.426 82.162 151.762 82.3504 152.098 81.7851C152.546 81.2826 153.777 80.3405 155.121 79.7124C157.025 78.7702 157.137 78.3306 156.129 76.886C153.777 73.4942 153.442 72.7405 155.233 74.3736C157.36 76.5091 158.48 76.6347 157.808 74.6248C157.36 73.243 157.472 73.1802 159.824 73.7455C162.063 74.3107 164.079 77.0116 163.967 79.0843C163.967 79.524 164.303 79.7124 164.862 79.524C165.422 79.3355 165.87 78.7074 165.982 78.1421C165.982 77.3884 166.318 77.5141 167.102 78.519C167.662 79.3983 168.557 79.7752 169.341 79.524C170.349 79.2099 170.461 79.5868 169.901 80.7174C169.117 82.5388 171.133 83.7322 172.7 82.3504C174.268 80.9686 173.932 78.519 172.252 79.0215C171.133 79.3983 171.133 79.2727 172.252 78.5818C173.036 78.1421 173.708 77.0744 173.82 76.1322C173.932 75.0017 174.268 75.3157 175.388 77.3884C176.731 79.9008 176.843 80.0264 176.955 78.3306L177.179 76.4463L179.307 77.9537C181.77 79.5868 182.106 79.0215 180.426 76.3207C179.419 74.7504 179.419 74.6876 180.874 75.6926C182.442 76.8231 182.554 76.8231 183.897 75.4413C184.681 74.6248 185.577 72.4264 186.025 70.4793C186.809 67.1504 186.809 67.1504 187.032 69.6628C187.032 71.1702 187.592 72.3636 188.264 72.3636C188.824 72.3636 189.384 73.8711 189.384 75.7554C189.384 79.2727 191.511 81.4711 191.735 78.205L191.847 76.4463L192.855 78.1421C193.639 79.2099 194.758 79.7752 196.214 79.7124C198.118 79.6496 198.341 79.0843 198.453 75.1901L198.677 70.7934L199.797 74.0595C200.357 75.881 201.253 77.3884 201.701 77.3884C202.148 77.3884 203.38 76.6347 204.5 75.7554C206.291 74.1851 206.291 73.8711 204.612 70.5422C203.604 68.5322 202.82 66.6479 202.82 66.3339C202.82 65.7058 206.963 69.6 212.562 75.6298C214.689 77.9537 216.817 79.838 217.152 79.7752C218.944 79.4612 225.214 81.157 225.326 81.9107C225.438 82.3504 226.11 81.2826 226.894 79.5868L228.349 76.4463L228.461 79.3983C228.573 81.0314 229.133 82.5388 229.917 82.7901C230.813 83.1041 231.037 81.9107 230.477 77.9537C229.917 73.0545 230.029 72.8661 231.373 74.876C232.156 76.0694 232.94 76.6975 232.94 76.2579C233.164 74.7504 235.292 76.195 235.292 77.7653C235.292 79.0843 235.739 79.3355 237.755 79.1471C239.434 79.0215 240.218 78.5818 240.218 77.8909C240.106 77.2628 240.442 76.9488 241.002 77.1372C241.562 77.3256 242.122 76.2579 242.122 74.7504L242.346 72.0496L243.465 75.3785C244.697 78.9587 246.6 79.3983 247.72 76.3835L248.504 74.562L248.616 76.2579C248.84 78.7074 249.96 80.2149 250.967 79.2099C251.639 78.6446 252.647 78.8959 254.774 80.0893C256.342 80.9686 257.909 81.4083 258.245 81.0942C258.917 80.5289 258.133 75.8182 256.902 73.3058C255.782 71.0446 258.469 73.1802 260.037 75.8182C261.38 78.205 261.493 78.2678 262.276 76.7603C262.724 75.7554 263.06 75.5669 263.172 76.2579C263.284 77.8909 265.188 77.6397 268.995 75.5669L272.242 73.7455L272.354 77.2628C272.466 79.9636 272.689 80.4661 273.361 79.2727C273.809 78.3934 274.033 75.881 273.809 73.6198C273.473 69.6 273.473 69.6 274.705 72.1752C275.377 73.6826 276.385 74.876 276.832 74.876C277.392 74.876 277.84 75.4413 277.84 76.195C277.84 76.886 278.288 77.2628 278.96 77.0744C279.52 76.886 280.079 77.2628 280.079 77.8909C280.079 78.5818 280.751 79.2727 281.647 79.4612C282.543 79.6496 283.439 80.4661 283.775 81.2826C284.11 82.2248 284.334 81.9107 284.558 80.2149L284.894 77.7025L285.566 80.1521C286.126 82.0992 286.798 82.6645 288.813 82.8529C290.605 82.9785 291.612 82.6017 292.396 81.5967L293.404 80.2149V81.6595C293.516 82.5388 293.964 82.9785 294.748 82.6645C295.531 82.4132 295.755 81.0314 295.419 79.0843C294.971 76.195 295.083 76.0694 296.427 77.4512L297.883 78.9587L297.995 77.0744C297.995 75.7554 298.331 75.4413 299.002 76.0694C299.562 76.5091 300.57 76.6975 301.242 76.5091C302.809 75.9438 302.809 76.5091 301.354 78.0793C300.57 78.8331 300.57 79.2727 301.242 79.2727C301.802 79.2727 302.585 79.7752 302.809 80.3405C303.145 81.0314 303.481 80.7174 303.593 79.5868L303.929 77.7025L304.601 79.9008C305.049 81.157 305.945 82.0364 306.728 81.9107C307.512 81.8479 308.072 82.2248 308.072 82.7901C308.072 83.6694 308.408 83.6694 309.864 83.0413C310.759 82.5388 311.431 81.4711 311.319 80.5917C311.095 79.7124 311.543 78.3934 312.327 77.7025C313.558 76.5091 313.558 76.5091 313.67 78.0793C313.67 80.7174 315.238 80.7802 316.694 78.205C317.701 76.2579 318.037 76.0694 318.149 77.3884C318.261 78.8331 318.485 78.7702 319.941 76.7603C321.396 74.6876 321.396 74.9388 320.837 80.2149L320.053 85.8678L322.516 84.6744C323.748 83.9835 324.867 83.0413 324.867 82.476C324.867 81.6595 325.091 81.6595 325.875 82.3504C327.443 83.7322 329.346 82.5388 329.346 80.0264L329.458 77.7025L330.914 79.5868C332.257 81.3455 332.369 81.4083 333.601 80.2149C334.497 79.2727 334.945 79.2099 335.057 79.9008C335.169 80.4033 335.84 79.3983 336.624 77.7025C337.408 75.9438 338.192 75.1273 338.192 75.8182C338.304 76.5091 338.864 77.5141 339.536 78.0165C340.319 78.7074 340.431 77.7025 340.095 74.562L339.424 70.1653L342.559 73.8083C345.022 76.6347 345.918 77.2628 347.037 76.6347C347.821 76.195 348.381 75.1901 348.381 74.2479C348.381 73.3686 348.829 71.9868 349.277 71.1074C349.949 69.7884 350.173 70.0397 350.733 72.6777C351.292 75.1273 351.404 74.4992 351.628 69.5372L351.964 63.2562L353.42 66.2711C354.204 67.9669 355.099 69.4744 355.435 69.6C355.659 69.7884 356.331 68.0926 356.779 65.957C357.675 62.0628 357.675 62.0628 358.682 64.1983C359.242 65.3917 360.586 69.6628 361.706 73.6198C362.713 77.7025 364.057 80.7174 364.617 80.5289C365.289 80.3405 365.736 79.2099 365.625 78.0165L365.513 75.8182L367.192 78.1421C369.655 81.6595 372.455 81.3455 374.246 77.3884C375.702 74.0595 377.829 74.3107 376.709 77.6397C376.262 78.8959 376.374 79.3355 377.269 79.0215C378.053 78.7702 378.389 79.2099 378.277 80.2777C378.053 81.5339 378.613 81.9736 380.405 82.162C382.308 82.3504 383.092 81.8479 384.435 79.3983L386.227 76.4463L386.339 78.7702C386.451 82.0992 388.69 82.476 388.69 79.1471C388.69 77.2 389.026 76.6975 389.81 77.3884C390.37 77.8909 390.93 79.0843 390.93 79.9636C390.93 80.9686 391.714 81.8479 392.721 82.0364C395.297 82.6017 395.521 82.3504 396.528 78.519C397.424 75.1273 397.536 75.1273 398.208 78.1421C398.432 79.1471 398.992 80.5289 399.439 81.2826C400.111 82.476 400.223 82.476 401.231 81.5967C401.903 80.9058 401.791 80.0264 400.895 79.1471C399.551 77.7653 399.663 77.7653 401.679 78.6446C402.798 79.1471 404.142 79.838 404.59 80.2149C405.038 80.5289 405.486 79.2727 405.598 77.3884C405.71 74.1223 405.71 74.0595 406.717 76.0066C407.277 77.1372 408.285 77.8909 408.845 77.7025C409.853 77.3256 410.077 77.7653 410.412 80.5289C410.524 81.0314 411.42 81.5339 412.54 81.6595C414.667 81.9107 415.227 80.7802 412.988 80.3405C411.868 80.0893 411.868 79.9636 412.988 79.9636C413.884 79.9008 414.443 78.8331 414.555 76.886C414.667 73.8711 414.891 74.0595 416.123 78.1421C416.571 79.6496 417.355 80.5289 418.362 80.5289C419.258 80.5289 420.042 80.1521 420.042 79.6496C420.042 79.1471 420.602 78.519 421.274 78.2678C422.057 78.0165 422.281 78.2678 421.833 79.1471C420.938 80.5917 424.969 85.3653 426.2 84.3603C426.536 83.9835 426.536 82.6017 426.2 81.3455C425.752 80.0264 425.304 78.0793 424.969 77.0744C424.521 75.2529 424.633 75.2529 426.088 77.3884L427.656 79.5868L427.88 77.7025C427.992 76.5719 428.328 76.195 428.776 76.7603C429.223 77.3884 429.895 76.8231 430.791 75.1901L432.135 72.6777L432.359 74.876C432.471 76.0694 433.03 77.6397 433.59 78.3306C434.374 79.2727 434.486 79.0843 434.038 77.3884C433.478 75.2529 433.478 75.2529 435.606 78.0165C436.837 79.5868 437.845 80.4033 437.957 79.9008C438.069 79.2727 438.405 79.3355 439.077 80.2149C441.428 83.2926 440.196 79.2099 436.166 70.7934C435.718 69.7884 435.83 69.7256 436.725 70.4793C437.397 70.9818 438.517 72.5521 439.189 73.9339C439.861 75.3157 440.98 76.6347 441.54 76.8231C442.212 77.0744 442.996 78.519 443.22 80.1521C444.115 84.2347 445.795 84.4231 445.795 80.4033C445.795 78.0165 445.459 77.3256 444.675 78.0165C444.003 78.5818 443.556 78.6446 443.556 78.205C443.556 76.9488 445.571 76.6975 446.803 77.8281C447.81 78.8331 447.922 78.8331 448.034 77.8909C448.034 77.3256 447.474 76.0694 446.915 75.0645C445.907 73.4314 445.907 73.4314 447.363 74.4992C448.93 75.6298 449.042 75.5669 449.714 73.8711C451.057 70.6678 451.17 70.7306 451.393 74.2479C451.505 76.7603 451.841 77.3884 452.513 76.4463C453.185 75.5041 453.521 76.1322 453.521 78.6446L453.633 82.0992L455.984 79.9636C457.888 78.205 458.112 77.5141 457.104 76.195C455.984 74.7504 455.984 74.6876 457.328 75.6926C459.567 77.2 460.015 77.0116 459.567 74.6876L459.231 72.6777L460.911 74.562C462.255 76.1322 462.479 76.195 462.59 75.1273C462.59 72.5521 464.27 72.9917 465.502 75.9438C466.733 78.8959 466.845 78.8959 467.069 76.7603C467.181 75.5669 467.517 74.9388 467.853 75.3157C468.637 76.4463 471.548 76.3207 471.548 75.1901C471.548 73.7455 473.452 74.0595 474.235 75.6298C474.907 77.0744 475.019 77.0744 476.587 75.881C478.154 74.6876 478.266 74.7504 478.378 76.8231C478.49 78.8331 478.602 78.7702 479.834 75.9438C481.065 72.9917 482.745 72.5521 482.745 75.1273C482.857 76.195 483.081 76.1322 484.425 74.562L486.104 72.6777L485.768 74.6876C485.32 77.0116 485.768 77.2 488.008 75.6298C489.351 74.6876 489.351 74.7504 488.232 76.195C487.224 77.5141 487.448 78.205 489.351 79.9636L491.703 82.0992L491.815 78.6446C491.815 76.1322 492.151 75.5041 492.822 76.4463C493.494 77.3884 493.83 76.7603 493.942 74.2479C494.166 70.7306 494.278 70.6678 495.622 73.8711C496.293 75.5669 496.405 75.6298 497.973 74.4992C499.429 73.4314 499.429 73.4314 498.421 75.0645C497.861 76.0694 497.301 77.3256 497.301 77.8909C497.413 78.8331 497.525 78.8331 498.533 77.8281C499.764 76.6975 501.78 76.9488 501.78 78.205C501.78 78.6446 501.332 78.5818 500.66 78.0165C499.876 77.3256 499.541 78.0165 499.541 80.4033C499.541 84.4231 501.22 84.2347 502.116 80.1521C502.34 78.519 503.124 77.0744 503.795 76.8231C504.355 76.6347 505.475 75.3157 506.147 73.9339C506.819 72.5521 507.938 70.9818 508.61 70.4793C509.506 69.7256 509.618 69.7884 509.17 70.7934C504.915 79.7752 504.131 82.4132 506.259 80.5289C506.819 80.0264 507.378 79.838 507.378 80.2149C507.49 80.5289 508.498 79.5868 509.73 78.0165C511.857 75.2529 511.857 75.2529 511.297 77.3884C510.849 79.0843 510.961 79.2727 511.745 78.3306C512.305 77.6397 512.865 76.0694 512.977 74.876L513.201 72.6777L514.432 75.0645C515.216 76.4463 516.112 77.2628 516.56 77.0116C517.12 76.7603 517.456 77.2628 517.568 78.0793C517.568 79.3983 517.792 79.2727 519.135 77.3884L520.703 75.1901L520.143 77.7025C519.807 79.0843 519.247 80.9686 519.023 81.9107C518.016 84.7372 519.695 85.1769 522.047 82.7273C523.39 81.3455 523.95 79.9008 523.502 79.1471C523.054 78.2678 523.278 78.0165 524.062 78.2678C524.734 78.519 525.294 79.1471 525.294 79.6496C525.294 80.1521 526.077 80.5289 526.973 80.5289C527.981 80.5289 528.765 79.6496 529.213 78.1421C530.444 74.0595 530.668 73.8711 530.78 76.886C530.892 78.5818 531.452 79.9008 532.236 80.0893C533.355 80.3405 533.355 80.4661 532.236 80.4661C531.564 80.5289 530.892 80.843 530.892 81.2198C530.892 82.2248 534.811 81.5967 534.923 80.5289C535.259 77.7653 535.483 77.3256 536.491 77.7025C537.05 77.8909 538.058 77.1372 538.618 76.0066C539.626 74.0595 539.626 74.1223 539.738 77.3884C539.85 79.2727 540.298 80.5289 540.745 80.2149C541.193 79.838 542.537 79.1471 543.657 78.6446C545.672 77.7653 545.784 77.7653 544.44 79.1471C543.545 80.0893 543.433 80.9058 544.217 81.5967C545 82.476 545.448 82.2248 546.456 80.1521C547.128 78.8331 547.688 77.1372 547.8 76.4463C547.911 75.7554 548.359 76.6975 548.807 78.519C549.815 82.3504 550.039 82.6017 552.614 82.0364C553.622 81.8479 554.406 80.9686 554.406 79.9636C554.406 79.0843 554.966 77.8909 555.526 77.3884C556.309 76.6975 556.645 77.2 556.645 79.1471C556.645 82.476 558.885 82.0992 558.997 78.7702L559.109 76.4463L560.9 79.3983C562.244 81.8479 563.027 82.3504 564.931 82.162C566.722 81.9736 567.282 81.5339 567.058 80.2777C566.946 79.2099 567.282 78.7702 568.066 79.0215C568.962 79.3355 569.074 78.8959 568.626 77.6397C567.506 74.3107 569.634 74.0595 571.089 77.3884C572.881 81.3455 575.68 81.6595 578.143 78.205L579.823 75.8182L579.711 78.0165C579.599 79.2099 580.047 80.3405 580.719 80.5289C581.279 80.7174 582.622 77.7025 583.63 73.6198C584.75 69.6628 586.093 65.3917 586.653 64.1983C587.661 62.0628 587.661 62.0628 588.557 65.957C589.005 68.0926 589.676 69.7884 589.9 69.6C590.236 69.4744 591.132 67.9669 591.916 66.2711L593.371 63.2562L593.707 69.5372C593.931 74.4992 594.043 75.1273 594.603 72.6777C595.163 70.0397 595.387 69.7884 596.059 71.1074C596.506 71.9868 596.954 73.3686 596.954 74.2479C596.954 75.1901 597.514 76.195 598.298 76.6347C599.418 77.2628 600.313 76.6347 602.777 73.8083L605.912 70.1653L605.24 74.562C604.904 77.7025 605.016 78.7074 605.8 78.0165C606.472 77.5141 607.032 76.5091 607.144 75.8182C607.144 75.1273 607.927 75.9438 608.711 77.7025C609.495 79.3983 610.167 80.4033 610.279 79.9008C610.391 79.2099 610.839 79.2727 611.734 80.2149C612.966 81.4083 613.078 81.3455 614.422 79.5868L615.877 77.7025L615.989 80.0264C615.989 82.5388 617.893 83.7322 619.46 82.3504C620.244 81.6595 620.468 81.6595 620.468 82.476C620.468 83.0413 621.588 83.9835 622.819 84.6744L625.283 85.8678L624.499 80.2149C623.939 74.9388 623.939 74.6876 625.395 76.7603C626.85 78.7702 627.074 78.8331 627.186 77.3884C627.298 76.0694 627.634 76.2579 628.642 78.205C630.097 80.7802 631.665 80.7174 631.665 78.0793C631.777 76.5091 631.777 76.5091 633.009 77.7025C633.792 78.3934 634.24 79.7124 634.016 80.5917C633.904 81.4711 634.576 82.5388 635.472 83.0413C636.928 83.6694 637.263 83.6694 637.263 82.7901C637.263 82.2248 637.823 81.8479 638.607 81.9107C639.391 82.0364 640.287 81.157 640.735 79.9008L641.406 77.7025L641.742 79.5868C641.854 80.7174 642.19 81.0314 642.526 80.4033C642.75 79.7752 643.534 79.2727 644.094 79.2727C644.765 79.2727 644.765 78.8331 643.982 78.0793C642.526 76.5091 642.526 75.9438 644.094 76.5091C644.765 76.6975 645.773 76.5091 646.333 76.0694C647.005 75.4413 647.341 75.7554 647.341 77.0744L647.453 78.9587L648.908 77.4512C650.252 76.0694 650.364 76.195 649.916 79.0843C649.58 81.0314 649.804 82.4132 650.588 82.6645C651.372 82.9785 651.82 82.5388 651.932 81.6595V80.2149L652.939 81.5967C653.723 82.6017 654.731 82.9785 656.522 82.8529C658.538 82.6645 659.21 82.0992 659.769 80.1521L660.441 77.7025L660.777 80.2149C661.001 81.9107 661.225 82.2248 661.561 81.2826C661.897 80.4661 662.793 79.6496 663.688 79.4612C664.584 79.2727 665.256 78.5818 665.256 77.8909C665.256 77.2628 665.704 76.886 666.376 77.0744C666.935 77.2628 667.495 76.886 667.495 76.195C667.495 75.4413 667.943 74.876 668.503 74.876C668.951 74.876 669.959 73.6826 670.63 72.1752C671.862 69.6 671.862 69.6 671.526 73.6198C671.302 75.881 671.526 78.3934 671.974 79.2727C672.646 80.4661 672.87 79.9636 672.982 77.2628L673.094 73.7455L676.341 75.5669C680.148 77.6397 682.051 77.8909 682.163 76.2579C682.275 75.5669 682.611 75.7554 683.059 76.7603C683.843 78.205 684.067 78.0165 685.858 75.0017C686.978 73.1802 688.098 71.7355 688.322 71.8612C688.546 71.9868 688.21 73.9339 687.538 76.1322C686.082 81.3455 686.754 82.2248 690.561 80.0893C692.689 78.8959 693.696 78.6446 694.368 79.2099C695.376 80.2149 696.496 78.7074 696.719 76.2579L696.831 74.562L697.615 76.3835C698.735 79.3983 700.638 78.9587 701.87 75.3785C702.99 72.0496 702.99 72.0496 703.214 74.562C703.214 75.9438 704.109 77.7025 705.005 78.4562C706.237 79.3983 706.349 79.838 705.341 80.0264C704.557 80.2149 704.333 80.9058 704.893 81.9736C705.789 84.1719 707.805 83.6066 707.805 81.0942C707.805 80.0893 708.252 79.2727 708.924 79.2727C709.484 79.2727 710.044 78.5818 710.044 77.7653C710.044 76.195 712.171 74.7504 712.395 76.2579C712.395 76.6975 713.179 76.0694 713.963 74.876C715.307 72.8661 715.418 73.0545 714.859 77.9537C714.299 81.9107 714.523 83.1041 715.418 82.7901C716.202 82.5388 716.762 81.0314 716.874 79.3983L716.986 76.4463L718.442 79.5868C719.225 81.2826 719.897 82.3504 720.009 81.9107C720.121 81.157 726.392 79.4612 728.183 79.7752C728.519 79.838 730.646 77.9537 732.774 75.6298C738.372 69.6 742.515 65.7058 742.515 66.3339C742.515 66.6479 741.731 68.5322 740.724 70.5422C739.044 73.8711 739.044 74.1851 740.836 75.7554C741.955 76.6347 743.187 77.3884 743.635 77.3884C744.083 77.3884 744.979 75.881 745.538 74.0595L746.658 70.7934L746.882 75.1901C746.994 79.0843 747.218 79.6496 749.121 79.7124C750.577 79.7752 751.697 79.2099 752.481 78.1421L753.488 76.4463L753.6 78.205C753.824 81.4711 755.952 79.2727 755.952 75.7554C755.952 73.8711 756.399 72.3636 757.071 72.3636C757.631 72.3636 758.303 71.1702 758.303 69.6628C758.527 67.1504 758.527 67.1504 759.311 70.4793C759.759 72.4264 760.654 74.6248 761.438 75.4413C762.782 76.8231 762.894 76.8231 764.461 75.6926C765.917 74.6876 765.917 74.7504 764.909 76.3207C763.23 79.0215 763.566 79.5868 766.029 77.9537L768.156 76.4463L768.38 78.3306C768.492 80.0264 768.604 79.9008 769.948 77.3884C771.068 75.3157 771.403 75.0017 771.515 76.1322C771.627 77.0744 772.299 78.1421 772.971 78.5818C774.091 79.2727 774.091 79.3983 772.971 79.0215C771.403 78.519 771.068 80.9686 772.635 82.3504C774.203 83.7322 776.218 82.5388 775.434 80.7174C774.875 79.5868 774.986 79.2099 775.994 79.524C776.778 79.7752 777.674 79.3983 778.234 78.519C779.017 77.5141 779.353 77.3884 779.353 78.1421C779.465 78.7074 780.025 79.3983 780.697 79.5868C781.369 79.838 781.705 79.6496 781.593 79.2099C781.145 77.2 783.16 74.3736 785.512 73.7455C787.863 73.1802 787.975 73.243 787.527 74.6248C786.855 76.6347 787.975 76.5091 790.102 74.3736C791.894 72.7405 791.558 73.4942 789.207 76.886C788.199 78.3306 788.311 78.7702 790.214 79.7124C791.558 80.3405 792.79 81.2826 793.238 81.7851C793.573 82.3504 793.909 82.162 793.909 81.157C794.021 79.9636 794.245 79.7752 795.141 80.5289C795.701 81.0314 796.261 81.2826 796.485 81.157C798.388 79.524 799.62 77.8281 799.62 77.0744C799.62 76.5091 800.068 76.2579 800.74 76.4463C801.411 76.6347 801.859 78.5818 801.971 80.7174C801.971 82.8529 802.419 85.1769 802.979 85.8678C803.651 86.9355 803.987 86.6843 804.659 84.6116C805.106 83.2298 806.562 80.6545 807.906 78.9587C809.249 77.2 810.929 75.1273 811.601 74.2479C812.608 72.9289 812.72 73.3058 812.496 76.4463C812.272 79.4612 812.384 79.7124 812.944 77.7025C813.84 74.9388 814.064 75.1901 816.079 80.843L816.975 83.3554L817.311 80.3405C817.647 77.3884 818.991 76.5091 820.222 78.3934C820.558 78.8959 821.342 79.1471 822.014 78.9587C823.134 78.5818 823.581 79.3355 823.245 81.2826C822.798 83.3554 827.276 83.2298 831.643 81.0314C833.883 79.9008 836.234 78.9587 836.906 78.9587C837.69 78.9587 838.585 78.0793 838.921 77.0744C839.369 75.881 839.705 75.6298 839.817 76.4463C839.929 77.5141 840.153 77.5769 841.049 76.7603C841.609 76.2579 842.168 76.1322 842.168 76.5091C842.168 76.8231 842.84 77.7025 843.736 78.3306C845.192 79.4612 845.416 79.3355 846.311 76.7603L847.431 73.9339L848.663 76.5719C849.782 78.7702 850.454 79.0843 852.358 78.8331C854.597 78.4562 854.709 78.1421 854.149 74.7504C853.589 71.4843 853.701 71.1702 855.157 72.1752C856.501 73.243 856.613 73.1802 856.836 71.4215C856.948 70.1025 857.284 70.4793 857.956 72.7405C858.404 74.4992 859.636 76.6975 860.531 77.7025L862.211 79.4612L862.883 77.0116C863.891 73.6198 864.338 73.0545 864.45 75.0017C864.674 77.9537 866.578 76.9488 868.033 73.1802L869.489 69.5372L870.385 72.0496C871.84 76.0694 871.84 76.0694 876.207 75.5041C879.678 75.0645 880.238 75.1901 880.238 76.195C880.238 76.8231 881.246 77.6397 882.478 78.0165C884.381 78.5818 884.717 78.3934 885.725 76.3207C886.397 75.0017 886.956 73.4942 886.956 72.9917C887.068 71.5471 890.315 76.0694 890.315 77.6397C890.315 79.524 890.987 79.7752 894.234 79.3983C896.922 79.1471 897.034 78.9587 897.034 73.7455C897.034 67.5273 898.377 67.5901 900.281 73.9339C902.184 80.2777 903.304 80.7174 904.2 75.4413C904.536 72.9289 905.319 70.1653 905.655 69.286L906.439 67.6529L907.223 69.5372C907.671 70.5422 908.007 72.3636 908.119 73.557C908.119 74.7504 909.35 76.9488 910.694 78.4562C912.709 80.7174 913.381 81.0314 913.941 80.0893C914.501 79.3983 914.837 80.0893 914.949 82.0992C915.173 85.3025 916.852 89.8876 917.076 88.0033C917.076 87.438 917.972 86.7471 918.98 86.5587C920.211 86.3074 920.659 85.4281 920.547 83.2298C920.211 78.4562 920.435 77.2628 921.555 77.7025C922.115 77.8909 922.899 77.2628 923.123 76.3207C923.459 75.0645 923.571 75.3157 923.794 77.2C923.906 80.0264 926.146 81.0314 926.146 78.3306C926.146 77.4512 926.594 76.7603 927.266 76.7603C927.825 76.7603 928.385 77.6397 928.385 78.7702C928.385 81.7223 929.953 80.2777 930.737 76.5719L931.408 73.3058L931.632 76.1322C931.744 78.205 932.08 78.7074 932.864 78.0165C933.76 77.2628 933.984 77.4512 933.984 78.7702C933.984 79.7752 934.432 80.5289 935.103 80.5289C935.663 80.5289 936.223 79.7752 936.335 78.7702L936.447 77.0744L937.343 78.6446L938.239 80.2149L938.463 78.6446C938.686 77.2628 938.798 77.3256 939.918 79.2727C940.814 80.9058 941.15 81.157 941.598 80.2777C941.934 79.3355 942.27 79.2727 943.053 79.9636C943.725 80.5917 944.061 80.2149 944.061 78.7074C944.061 77.5141 944.397 76.7603 944.845 77.0116C945.293 77.2628 946.524 76.3835 947.532 75.0645L949.324 72.6777L950.555 76.8231C951.339 79.0843 951.899 81.6595 952.011 82.476C952.123 83.9207 952.123 83.9207 953.69 82.0992C955.258 80.2777 955.258 80.3405 954.586 83.7322C954.138 85.9934 954.362 87.438 955.146 87.6893C956.714 88.2545 957.833 85.5537 957.273 82.7273C957.05 81.5339 957.273 80.5289 957.721 80.5289C958.169 80.5289 958.617 79.9008 958.729 79.0843C958.841 78.0793 959.177 78.2678 959.961 79.9008C960.969 81.9107 961.192 81.9736 962.536 80.9686C963.992 79.838 963.992 79.838 964.552 80.9686C964.999 81.8479 965.111 81.8479 965.223 80.6545C965.223 79.9008 965.895 79.2727 966.567 79.2727C967.239 79.2727 967.463 79.838 967.015 80.5917C966.455 81.5339 966.567 81.7851 967.463 81.5339C968.135 81.2826 968.694 80.4661 968.806 79.7124C968.918 78.9587 969.478 79.5868 970.038 81.157C970.71 82.7273 971.494 83.6066 971.718 83.2298C972.837 81.4711 974.181 82.5388 973.733 84.7372C973.397 86.0562 973.509 86.6215 973.845 86.0562C974.517 84.7372 976.084 84.6116 976.868 85.6793C977.204 86.119 977.54 85.7421 977.54 84.7372C977.652 83.795 977.092 83.0413 976.532 83.0413C975.86 83.0413 975.413 82.7901 975.413 82.5388C975.413 81.5339 978.772 81.9736 978.884 82.9785C978.884 83.5438 979.667 83.1041 980.451 82.0992C981.683 80.5917 982.019 80.4661 982.243 81.4711C982.355 82.2248 982.915 81.7851 983.81 80.2149L985.266 77.7025L985.378 81.9736C985.49 84.9256 986.05 86.5587 987.169 87.1868C988.625 88.0661 988.849 87.8149 989.073 85.114C989.185 83.481 989.185 81.157 989.073 80.0264C988.849 77.2 990.753 78.0793 991.648 81.157C992.432 83.8579 994.336 84.5488 994.559 82.2248C994.671 80.9058 994.671 80.9058 995.567 82.4132C996.015 83.2926 996.127 84.6744 995.791 85.5537L995.231 87.124L998.142 85.6165C999.71 84.8 1001.84 82.9157 1002.73 81.4083C1003.63 79.9008 1004.97 78.3306 1005.64 77.8909C1006.32 77.4512 1007.55 76.5091 1008.44 75.8182C1009.79 74.8132 1009.79 75.1273 1008.33 77.5769C1006.99 79.7752 1006.76 81.0314 1007.66 81.9736C1008.56 83.2298 1008.78 83.0413 1009.79 80.5289L1010.8 77.7025L1012.47 81.7851C1013.59 84.6116 1014.6 85.9306 1015.95 86.0562C1018.07 86.3074 1021.66 82.9785 1020.65 81.5967C1020.42 81.157 1020.87 80.4033 1021.77 79.9636C1023.22 79.2727 1023.56 79.5868 1024.68 81.6595C1025.69 83.9207 1029.16 85.8678 1029.16 84.2347C1029.16 83.3554 1026.81 80.9058 1025.46 80.4661C1024.9 80.2149 1024.79 79.7124 1025.24 79.3355C1025.69 78.8331 1027.03 79.4612 1028.93 81.0942C1030.5 82.476 1032.07 83.481 1032.29 83.3554C1032.63 83.2298 1033.41 81.5967 1034.31 79.7752L1035.65 76.4463L1035.76 78.9587C1035.88 80.7174 1036.21 81.2198 1036.88 80.5917C1037.56 79.9636 1039.91 79.6496 1043.71 79.6496C1047.52 79.6496 1049.87 79.9636 1050.54 80.5917C1051.22 81.2198 1051.55 80.7174 1051.66 78.9587L1051.78 76.4463L1053.12 79.7752C1054.02 81.5967 1054.8 83.2298 1055.14 83.3554C1055.36 83.481 1056.93 82.476 1058.49 81.0942C1060.4 79.4612 1061.74 78.8331 1062.19 79.3355C1062.64 79.7124 1062.53 80.2149 1061.97 80.4661C1060.62 80.9058 1058.27 83.3554 1058.27 84.2347C1058.27 85.8678 1061.74 83.9207 1062.75 81.6595C1063.87 79.5868 1064.2 79.2727 1065.66 79.9636C1066.56 80.4033 1067 81.157 1066.78 81.5967C1065.77 82.9785 1069.36 86.3074 1071.48 86.0562C1072.83 85.9306 1073.95 84.5488 1075.18 81.4711C1076.52 78.3306 1077.08 77.6397 1077.31 78.9587C1077.42 79.9636 1077.87 81.4083 1078.42 82.0992C1080.22 84.6744 1080.89 80.3405 1079.1 77.3884C1077.64 75.0017 1077.64 74.7504 1078.98 75.8182C1079.88 76.5091 1081.11 77.4512 1081.78 77.8909C1082.46 78.3306 1083.8 79.9008 1084.7 81.4083C1085.59 82.9157 1087.72 84.8 1089.29 85.6165L1092.2 87.124L1091.64 85.5537C1091.3 84.6744 1091.41 83.2926 1091.86 82.4132C1092.76 80.9058 1092.76 80.9058 1092.87 82.2248C1093.09 84.5488 1095 83.8579 1095.78 81.157C1096.68 78.0793 1098.58 77.2 1098.36 80.0264C1098.24 81.157 1098.24 83.481 1098.36 85.114C1098.58 87.8149 1098.8 88.0661 1100.26 87.1868C1101.38 86.5587 1101.94 84.9256 1102.05 81.9736L1102.16 77.7025L1103.62 80.2149C1104.51 81.7851 1105.07 82.2248 1105.19 81.4711C1105.41 80.4661 1105.75 80.5917 1106.98 82.0992C1107.76 83.1041 1108.54 83.5438 1108.54 82.9785C1108.66 81.9736 1112.02 81.5339 1112.02 82.5388C1112.02 82.7901 1111.46 83.0413 1110.9 83.0413C1110.22 83.0413 1109.78 83.795 1109.89 84.7372C1109.89 85.7421 1110.22 86.119 1110.56 85.6793C1111.34 84.6116 1112.91 84.7372 1113.58 85.9934C1113.92 86.6215 1114.03 86.0562 1113.7 84.7372C1113.25 82.5388 1114.59 81.4711 1115.71 83.1669C1115.93 83.6066 1116.72 82.7273 1117.39 81.157C1117.95 79.5868 1118.51 78.9587 1118.62 79.7124C1118.73 80.4661 1119.29 81.2826 1119.97 81.5339C1120.86 81.7851 1120.97 81.5339 1120.41 80.5917C1119.97 79.838 1120.19 79.2727 1120.86 79.2727C1121.53 79.2727 1122.21 79.9008 1122.21 80.6545C1122.32 81.8479 1122.43 81.8479 1122.88 80.9686C1123.44 79.838 1123.44 79.838 1124.89 80.9686C1126.24 81.9736 1126.46 81.9107 1127.47 79.9008C1128.25 78.2678 1128.59 78.0793 1128.7 79.0843C1128.81 79.9008 1129.26 80.5289 1129.71 80.5289C1130.15 80.5289 1130.38 81.5339 1130.15 82.7273C1129.6 85.5537 1130.71 88.2545 1132.28 87.6893C1133.07 87.438 1133.29 85.9934 1132.84 83.7322C1132.17 80.3405 1132.17 80.2777 1133.74 82.0992C1135.31 83.9207 1135.31 83.9207 1135.42 82.476C1135.53 81.6595 1136.09 79.0843 1136.87 76.8231L1138.1 72.6777L1139.9 75.0645C1140.9 76.3835 1142.14 77.2628 1142.58 77.0116C1143.03 76.7603 1143.37 77.5141 1143.37 78.7074C1143.37 80.2149 1143.7 80.5917 1144.38 79.9636C1145.16 79.2727 1145.49 79.3355 1145.83 80.2777C1146.28 81.157 1146.61 80.9058 1147.51 79.2727C1148.63 77.3256 1148.74 77.2628 1148.97 78.6446L1149.19 80.2149L1150.09 78.6446L1150.98 77.0744L1151.09 78.7702C1151.21 79.7752 1151.65 80.5289 1152.33 80.5289C1152.88 80.5289 1153.44 79.7752 1153.44 78.7702C1153.44 77.4512 1153.67 77.2628 1154.56 78.0165C1155.35 78.7074 1155.68 78.205 1155.8 76.1322L1156.02 73.3058L1156.69 76.5719C1157.48 80.2777 1159.04 81.7223 1159.04 78.7702C1159.04 77.6397 1159.49 76.7603 1160.16 76.7603C1160.72 76.7603 1161.28 77.4512 1161.28 78.3306C1161.28 81.0314 1163.52 80.0264 1163.63 77.2C1163.86 75.3157 1163.97 75.0645 1164.31 76.3207C1164.53 77.2628 1165.31 77.8909 1165.87 77.7025C1166.99 77.2628 1167.22 78.4562 1166.88 83.2298C1166.77 85.4281 1167.22 86.3074 1168.45 86.5587C1169.46 86.7471 1170.35 87.438 1170.35 88.0033C1170.58 89.8876 1172.26 85.3025 1172.48 82.0992C1172.59 80.0893 1172.93 79.3983 1173.49 80.0893C1174.05 81.0314 1174.72 80.7174 1176.73 78.4562C1178.08 76.9488 1179.31 74.7504 1179.31 73.557C1179.42 72.3636 1179.76 70.5422 1180.21 69.5372L1180.99 67.6529L1181.77 69.286C1182.11 70.1653 1182.89 72.9289 1183.23 75.4413C1184.12 80.7174 1185.24 80.2777 1187.15 73.9339C1189.05 67.5901 1190.39 67.5273 1190.39 73.7455C1190.39 78.9587 1190.51 79.1471 1193.19 79.3983C1196.44 79.7752 1197.11 79.524 1197.11 77.6397C1197.11 76.0694 1200.36 71.5471 1200.47 72.9917C1200.47 73.4942 1201.03 75.0017 1201.7 76.3207C1202.71 78.3934 1203.05 78.5818 1204.95 78.0165C1206.18 77.6397 1207.19 76.8231 1207.19 76.195C1207.19 75.1901 1207.75 75.0645 1211.22 75.5041C1215.59 76.0694 1215.59 76.0694 1217.04 72.0496L1217.94 69.5372L1219.4 73.1802C1220.85 76.9488 1222.75 77.9537 1222.98 75.0017C1223.09 73.0545 1223.54 73.6198 1224.55 77.0116L1225.22 79.4612L1226.9 77.7025C1227.79 76.6975 1229.02 74.4992 1229.47 72.7405C1230.14 70.4793 1230.48 70.1025 1230.59 71.4215C1230.82 73.1802 1230.93 73.243 1232.27 72.1752C1233.73 71.1702 1233.84 71.4843 1233.28 74.7504C1232.72 78.1421 1232.83 78.4562 1235.07 78.8331C1236.97 79.0843 1237.65 78.7702 1238.77 76.5719L1240 73.9339L1241.12 76.7603C1242.01 79.3355 1242.24 79.4612 1243.69 78.3306C1244.59 77.7025 1245.26 76.8231 1245.26 76.5091C1245.26 76.1322 1245.82 76.2579 1246.38 76.7603C1247.28 77.5769 1247.5 77.5141 1247.61 76.4463C1247.72 75.6298 1248.06 75.881 1248.51 77.0744C1248.84 78.0793 1249.74 78.9587 1250.52 78.9587C1251.19 78.9587 1253.55 79.9008 1255.79 81.0314C1258.7 82.5388 1260.49 82.9785 1262.17 82.7273C1264.07 82.3504 1264.29 81.9107 1263.85 79.3983C1263.4 76.9488 1263.51 76.6975 1264.41 78.0165C1265.53 79.4612 1265.64 79.524 1266.98 78.4562C1269.22 76.8231 1269.78 77.1372 1270.12 80.3405L1270.45 83.3554L1271.35 80.843C1273.36 75.1901 1273.59 74.9388 1274.48 77.7025C1275.04 79.7124 1275.16 79.4612 1274.93 76.4463C1274.71 73.3058 1274.82 72.9289 1275.83 74.2479C1276.5 75.1273 1278.18 77.2 1279.52 78.9587C1280.87 80.6545 1282.32 83.2298 1282.77 84.6116C1283.44 86.6843 1283.78 86.9355 1284.45 85.8678C1285.01 85.1769 1285.46 82.8529 1285.46 80.7174C1285.57 78.5818 1286.02 76.6347 1286.69 76.4463C1287.25 76.2579 1287.81 76.5091 1287.81 77.0744C1287.81 77.8281 1289.04 79.524 1290.94 81.157C1291.17 81.2826 1291.73 81.0314 1292.29 80.5289C1293.18 79.7752 1293.41 79.9636 1293.52 81.157C1293.52 82.162 1293.86 82.3504 1294.19 81.7851C1294.64 81.2826 1295.87 80.3405 1297.21 79.7124C1299.12 78.7702 1299.23 78.3306 1298.22 76.886C1295.87 73.4942 1295.53 72.7405 1297.33 74.3736C1299.45 76.5091 1300.57 76.6347 1299.9 74.6248C1299.45 73.243 1299.57 73.1802 1301.92 73.7455C1304.16 74.3107 1306.17 77.0116 1306.06 79.0843C1306.06 79.524 1306.4 79.7124 1306.96 79.524C1307.52 79.3355 1307.96 78.7074 1308.08 78.1421C1308.08 77.3884 1308.41 77.5141 1309.19 78.519C1309.75 79.3983 1310.65 79.7752 1311.43 79.524C1312.44 79.2099 1312.55 79.5868 1311.99 80.7174C1311.21 82.5388 1313.23 83.7322 1314.79 82.3504C1316.36 80.9686 1316.03 78.519 1314.35 79.0215C1313.23 79.3983 1313.23 79.2727 1314.35 78.5818C1315.13 78.1421 1315.8 77.0744 1315.91 76.1322C1316.03 75.0017 1316.36 75.3157 1317.48 77.3884C1318.82 79.9008 1318.94 80.0264 1319.05 78.3306L1319.27 76.4463L1321.4 77.9537C1323.86 79.5868 1324.2 79.0215 1322.52 76.3207C1321.51 74.7504 1321.51 74.6876 1322.97 75.6926C1324.53 76.8231 1324.65 76.8231 1325.99 75.4413C1326.77 74.6248 1327.67 72.4264 1328.12 70.4793C1328.9 67.1504 1328.9 67.1504 1329.13 69.6628C1329.13 71.1702 1329.69 72.3636 1330.36 72.3636C1330.92 72.3636 1331.48 73.8711 1331.48 75.7554C1331.48 79.2727 1333.6 81.4711 1333.83 78.205L1333.94 76.4463L1334.95 78.1421C1335.73 79.2099 1336.85 79.7752 1338.31 79.7124C1340.21 79.6496 1340.43 79.0843 1340.55 75.1901L1340.77 70.7934L1341.89 74.0595C1342.45 75.881 1343.35 77.3884 1343.79 77.3884C1344.24 77.3884 1345.47 76.6347 1346.59 75.7554C1348.38 74.1851 1348.38 73.8711 1346.7 70.5422C1345.7 68.5322 1344.91 66.6479 1344.91 66.3339C1344.91 65.7058 1349.06 69.6 1354.65 75.6298C1356.78 77.9537 1358.91 79.838 1359.25 79.7752C1361.04 79.4612 1367.31 81.157 1367.42 81.9107C1367.53 82.3504 1368.2 81.2826 1368.99 79.5868L1370.44 76.4463L1370.55 79.3983C1370.67 81.0314 1371.23 82.5388 1372.01 82.7901C1372.91 83.1041 1373.13 81.9107 1372.57 77.9537C1372.01 73.0545 1372.12 72.8661 1373.47 74.876C1374.25 76.0694 1375.03 76.6975 1375.03 76.2579C1375.26 74.7504 1377.38 76.195 1377.38 77.7653C1377.38 79.0843 1377.83 79.3355 1379.85 79.1471C1381.53 79.0215 1382.31 78.5818 1382.31 77.8909C1382.2 77.2628 1382.54 76.9488 1383.1 77.1372C1383.65 77.3256 1384.21 76.2579 1384.21 74.7504L1384.44 72.0496L1385.56 75.3785C1386.79 78.9587 1388.69 79.3983 1389.81 76.3835L1390.6 74.562L1390.71 76.2579C1390.93 78.7074 1392.05 80.2149 1393.06 79.2099C1393.73 78.6446 1394.74 78.8959 1396.87 80.0893C1398.43 80.9686 1400 81.4083 1400.34 81.0942C1401.01 80.5289 1400.23 75.8182 1398.99 73.3058C1397.88 71.0446 1400.56 73.1802 1402.13 75.8182C1403.47 78.205 1403.59 78.2678 1404.37 76.7603C1404.82 75.7554 1405.15 75.5669 1405.27 76.2579C1405.38 77.8909 1407.28 77.6397 1411.09 75.5669L1414.33 73.7455L1414.45 77.2628C1414.56 79.9636 1414.78 80.4661 1415.45 79.2727C1415.9 78.3934 1416.13 75.881 1415.9 73.6198C1415.57 69.6 1415.57 69.6 1416.8 72.1752C1417.47 73.6826 1418.48 74.876 1418.93 74.876C1419.49 74.876 1419.93 75.4413 1419.93 76.195C1419.93 76.886 1420.38 77.2628 1421.05 77.0744C1421.61 76.886 1422.17 77.2628 1422.17 77.8909C1422.17 78.5818 1422.84 79.2727 1423.74 79.4612C1424.64 79.6496 1425.53 80.4661 1425.87 81.2826C1426.2 82.2248 1426.43 81.9107 1426.65 80.2149L1426.99 77.7025L1427.66 80.1521C1428.22 82.0992 1428.89 82.6645 1430.91 82.8529C1432.7 82.9785 1433.71 82.6017 1434.49 81.5967L1435.5 80.2149V81.6595C1435.61 82.5388 1436.06 82.9785 1436.84 82.6645C1437.62 82.4132 1437.85 81.0314 1437.51 79.0843C1437.06 76.195 1437.18 76.0694 1438.52 77.4512L1439.98 78.9587L1440.09 77.0744C1440.09 75.7554 1440.42 75.4413 1441.1 76.0694C1441.66 76.5091 1442.66 76.6975 1443.33 76.5091C1444.9 75.9438 1444.9 76.5091 1443.45 78.0793C1442.66 78.8331 1442.66 79.2727 1443.33 79.2727C1443.89 79.2727 1444.68 79.7752 1444.9 80.3405C1445.24 81.0314 1445.57 80.7174 1445.69 79.5868L1446.02 77.7025L1446.69 79.9008C1447.14 81.157 1448.04 82.0364 1448.82 81.9107C1449.61 81.8479 1450.16 82.2248 1450.16 82.7901C1450.16 83.6694 1450.5 83.6694 1451.96 83.0413C1452.85 82.5388 1453.52 81.4711 1453.41 80.5917C1453.19 79.7124 1453.64 78.3934 1454.42 77.7025C1455.65 76.5091 1455.65 76.5091 1455.76 78.0793C1455.76 80.7174 1457.33 80.7802 1458.79 78.205C1459.79 76.2579 1460.13 76.0694 1460.24 77.3884C1460.35 78.8331 1460.58 78.7702 1462.03 76.7603C1463.49 74.6876 1463.49 74.9388 1462.93 80.2149L1462.15 85.8678L1464.61 84.6744C1465.84 83.9835 1466.96 83.0413 1466.96 82.476C1466.96 81.6595 1467.18 81.6595 1467.97 82.3504C1469.54 83.7322 1471.44 82.5388 1471.44 80.0264L1471.55 77.7025L1473.01 79.5868C1474.35 81.3455 1474.46 81.4083 1475.69 80.2149C1476.59 79.2727 1477.04 79.2099 1477.15 79.9008C1477.26 80.4033 1477.93 79.3983 1478.72 77.7025C1479.5 75.9438 1480.28 75.1273 1480.28 75.8182C1480.4 76.5091 1480.96 77.5141 1481.63 78.0165C1482.41 78.7074 1482.52 77.7025 1482.19 74.562L1481.52 70.1653L1484.65 73.8083C1487.12 76.6347 1488.01 77.2628 1489.13 76.6347C1489.91 76.195 1490.47 75.1901 1490.47 74.2479C1490.47 73.3686 1490.92 71.9868 1491.37 71.1074C1492.04 69.7884 1492.27 70.0397 1492.83 72.6777C1493.39 75.1273 1493.5 74.4992 1493.72 69.5372L1494.06 63.2562L1495.51 66.2711C1497.42 70.1653 1498.31 70.605 1498.42 67.9041C1498.54 66.7107 1498.87 64.8893 1499.32 63.8843L1500.1 62L1501 64.1983ZM1409.3 78.205C1405.6 81.8479 1405.71 82.7901 1409.86 81.0314C1412.43 80.0264 1413.21 79.1471 1413.21 77.5769C1413.21 76.4463 1412.99 75.5041 1412.66 75.5041C1412.43 75.5041 1410.86 76.7603 1409.3 78.205ZM1346.03 78.0165C1343.23 81.0314 1343.23 81.157 1346.03 81.157C1347.26 81.157 1348.27 81.5967 1348.27 82.0992C1348.27 83.2298 1350.4 83.3554 1350.62 82.2248C1350.96 80.4661 1349.62 75.5041 1348.83 75.5041C1348.5 75.5041 1347.26 76.6347 1346.03 78.0165ZM736.917 79.6496C736.805 80.6545 736.693 81.8479 736.805 82.2248C736.917 83.3554 739.156 83.2298 739.156 82.0992C739.156 81.5967 740.164 81.157 741.396 81.157C744.195 81.157 744.195 81.0942 741.284 77.8281C739.044 75.5041 738.708 75.3157 738.036 76.5091C737.477 77.2 737.029 78.6446 736.917 79.6496ZM677.237 80.9058C681.492 82.7901 681.828 81.7851 677.909 78.1421L674.773 75.1901L674.438 77.3256C674.102 79.0215 674.661 79.7124 677.237 80.9058ZM267.203 78.205C263.508 81.8479 263.62 82.7901 267.763 81.0314C270.338 80.0264 271.122 79.1471 271.122 77.5769C271.122 76.4463 270.898 75.5041 270.562 75.5041C270.338 75.5041 268.771 76.7603 267.203 78.205ZM203.94 78.0165C201.141 81.0314 201.141 81.157 203.94 81.157C205.172 81.157 206.179 81.5967 206.179 82.0992C206.179 83.2298 208.307 83.3554 208.531 82.2248C208.867 80.4661 207.523 75.5041 206.739 75.5041C206.403 75.5041 205.172 76.6347 203.94 78.0165ZM1208.31 77.0744C1208.31 77.5769 1208.76 78.0165 1209.43 78.0165C1209.99 78.0165 1210.55 77.5769 1210.55 77.0744C1210.55 76.5719 1209.99 76.1322 1209.43 76.1322C1208.76 76.1322 1208.31 76.5719 1208.31 77.0744ZM876.879 77.0744C876.879 77.5769 877.327 78.0165 877.999 78.0165C878.559 78.0165 879.118 77.5769 879.118 77.0744C879.118 76.5719 878.559 76.1322 877.999 76.1322C877.327 76.1322 876.879 76.5719 876.879 77.0744ZM66.217 77.0744C66.217 77.5769 66.6649 78.0165 67.3367 78.0165C67.8965 78.0165 68.4564 77.5769 68.4564 77.0744C68.4564 76.5719 67.8965 76.1322 67.3367 76.1322C66.6649 76.1322 66.217 76.5719 66.217 77.0744ZM1599.31 81.0942C1598.41 82.5388 1598.53 83.0413 1599.64 83.2926C1601.66 83.7322 1602.44 83.1041 1602.44 81.0314C1602.44 78.7702 1600.76 78.7702 1599.31 81.0942ZM484.984 81.0314C484.984 83.1041 485.768 83.7322 487.784 83.2926C488.903 83.0413 489.015 82.5388 488.12 81.0942C486.664 78.7702 484.984 78.7702 484.984 81.0314ZM457.216 81.0942C456.32 82.5388 456.432 83.0413 457.552 83.2926C459.567 83.7322 460.351 83.1041 460.351 81.0314C460.351 78.7702 458.672 78.7702 457.216 81.0942ZM1396.31 82.6017C1397.2 83.1041 1397.54 82.9157 1397.54 82.0364C1397.54 80.3405 1395.97 79.4612 1395.52 80.843C1395.3 81.4083 1395.64 82.2248 1396.31 82.6017ZM1379.62 81.4083C1379.62 83.2926 1381.3 84.0463 1382.31 82.6645C1383.43 80.9686 1383.1 79.9008 1381.3 79.9008C1380.3 79.9008 1379.62 80.4661 1379.62 81.4083ZM689.889 81.8479C689.889 82.5388 690.337 82.9157 691.009 82.7273C691.569 82.5388 692.129 81.7851 692.129 81.0942C692.129 80.4033 691.569 80.0264 691.009 80.2149C690.337 80.4033 689.889 81.157 689.889 81.8479ZM254.214 82.6017C255.11 83.1041 255.446 82.9157 255.446 82.0364C255.446 80.3405 253.879 79.4612 253.431 80.843C253.207 81.4083 253.543 82.2248 254.214 82.6017ZM237.531 81.4083C237.531 83.2926 239.21 84.0463 240.218 82.6645C241.338 80.9686 241.002 79.9008 239.21 79.9008C238.203 79.9008 237.531 80.4661 237.531 81.4083ZM1045.95 81.7851C1045.95 82.476 1046.4 83.0413 1046.96 83.0413C1047.63 83.0413 1048.19 84.1091 1048.42 85.3653C1048.64 86.6843 1049.2 87.7521 1049.87 87.7521C1051.78 87.7521 1051.78 83.795 1049.76 82.162C1047.52 80.2149 1045.95 80.0893 1045.95 81.7851ZM1037.67 82.162C1035.65 83.795 1035.65 87.7521 1037.56 87.7521C1038.12 87.7521 1038.79 86.6843 1039.01 85.3653C1039.24 84.1091 1039.8 83.0413 1040.47 83.0413C1041.03 83.0413 1041.47 82.476 1041.47 81.7851C1041.47 80.0893 1039.91 80.2149 1037.67 82.162ZM1545.68 82.5388C1546.01 83.0413 1546.35 82.8529 1546.35 82.162C1546.46 81.4711 1546.12 81.0942 1545.79 81.3455C1545.45 81.5339 1545.34 82.0992 1545.68 82.5388ZM1266.87 82.5388C1267.21 83.0413 1267.54 82.8529 1267.54 82.162C1267.65 81.4711 1267.32 81.0942 1266.98 81.3455C1266.65 81.5339 1266.53 82.0992 1266.87 82.5388ZM1253.43 82.7273C1253.88 83.2298 1254.67 83.6694 1255.34 83.6694C1256.01 83.6694 1256.01 83.2298 1255.11 82.4132C1253.55 81.0314 1252.43 81.2198 1253.43 82.7273ZM831.531 83.5438C832.427 84.0463 834.331 82.9157 834.331 81.9107C834.331 81.0942 834.107 81.0942 832.763 82.162C831.867 82.7901 831.307 83.481 831.531 83.5438ZM820.11 82.5388C820.446 83.0413 820.782 82.8529 820.782 82.162C820.894 81.4711 820.558 81.0942 820.222 81.3455C819.886 81.5339 819.774 82.0992 820.11 82.5388ZM541.305 82.5388C541.641 83.0413 541.977 82.8529 541.977 82.162C542.089 81.4711 541.753 81.0942 541.417 81.3455C541.081 81.5339 540.969 82.0992 541.305 82.5388ZM403.582 82.5388C403.918 83.0413 404.254 82.8529 404.254 82.162C404.366 81.4711 404.03 81.0942 403.694 81.3455C403.358 81.5339 403.246 82.0992 403.582 82.5388ZM124.777 82.5388C125.113 83.0413 125.449 82.8529 125.449 82.162C125.561 81.4711 125.225 81.0942 124.889 81.3455C124.553 81.5339 124.441 82.0992 124.777 82.5388ZM111.341 82.7273C111.789 83.2298 112.573 83.6694 113.244 83.6694C113.916 83.6694 113.916 83.2298 113.02 82.4132C111.453 81.0314 110.333 81.2198 111.341 82.7273ZM1119.07 83.795C1119.41 84.2975 1119.74 84.1091 1119.74 83.4182C1119.85 82.7273 1119.52 82.3504 1119.18 82.6017C1118.85 82.7901 1118.73 83.3554 1119.07 83.795ZM967.911 83.795C968.247 84.2975 968.582 84.1091 968.582 83.4182C968.694 82.7273 968.359 82.3504 968.023 82.6017C967.687 82.7901 967.575 83.3554 967.911 83.795ZM1431.13 84.6744C1431.13 85.1769 1431.91 86.0562 1432.81 86.5587C1434.27 87.438 1434.49 87.3124 1434.49 85.6165C1434.49 84.2975 1433.93 83.6694 1432.81 83.6694C1431.91 83.6694 1431.13 84.1091 1431.13 84.6744ZM1312.78 85.0512C1313.11 85.5537 1313.45 85.3653 1313.45 84.6744C1313.56 83.9835 1313.23 83.6066 1312.89 83.8579C1312.55 84.0463 1312.44 84.6116 1312.78 85.0512ZM774.203 85.0512C774.539 85.5537 774.875 85.3653 774.875 84.6744C774.986 83.9835 774.651 83.6066 774.315 83.8579C773.979 84.0463 773.867 84.6116 774.203 85.0512ZM652.939 85.6165C652.939 87.3124 653.163 87.438 654.619 86.5587C655.515 86.0562 656.298 85.1769 656.298 84.6744C656.298 84.1091 655.515 83.6694 654.619 83.6694C653.499 83.6694 652.939 84.2975 652.939 85.6165ZM289.037 84.6744C289.037 85.1769 289.821 86.0562 290.717 86.5587C292.172 87.438 292.396 87.3124 292.396 85.6165C292.396 84.2975 291.836 83.6694 290.717 83.6694C289.821 83.6694 289.037 84.1091 289.037 84.6744ZM170.685 85.0512C171.021 85.5537 171.357 85.3653 171.357 84.6744C171.469 83.9835 171.133 83.6066 170.797 83.8579C170.461 84.0463 170.349 84.6116 170.685 85.0512ZM1381.08 85.6793C1381.42 86.1818 1381.75 85.9934 1381.75 85.3025C1381.86 84.6116 1381.53 84.2347 1381.19 84.486C1380.86 84.6744 1380.74 85.2397 1381.08 85.6793ZM705.901 85.6793C706.237 86.1818 706.573 85.9934 706.573 85.3025C706.685 84.6116 706.349 84.2347 706.013 84.486C705.677 84.6744 705.565 85.2397 705.901 85.6793ZM238.987 85.6793C239.323 86.1818 239.658 85.9934 239.658 85.3025C239.77 84.6116 239.434 84.2347 239.099 84.486C238.763 84.6744 238.651 85.2397 238.987 85.6793ZM1107.87 86.3074C1108.21 86.8099 1108.54 86.6215 1108.54 85.9306C1108.66 85.2397 1108.32 84.8628 1107.98 85.114C1107.65 85.3025 1107.54 85.8678 1107.87 86.3074ZM979.108 86.3074C979.443 86.8099 979.779 86.6215 979.779 85.9306C979.891 85.2397 979.555 84.8628 979.22 85.114C978.884 85.3025 978.772 85.8678 979.108 86.3074ZM1095.56 87.5636C1095.89 88.0033 1096.12 87.6893 1096.12 86.8099C1096.12 85.9306 1095.89 85.6165 1095.56 85.9934C1095.33 86.4331 1095.33 87.1868 1095.56 87.5636ZM1057.93 87.1868C1058.38 87.9405 1058.83 88.0033 1059.5 87.3752C1060.51 86.4331 1059.73 85.3653 1058.27 85.8678C1057.71 86.0562 1057.6 86.6843 1057.93 87.1868ZM1027.7 87.1868C1028.15 87.9405 1028.6 88.0033 1029.27 87.3752C1030.28 86.4331 1029.49 85.3653 1028.04 85.8678C1027.48 86.0562 1027.37 86.6843 1027.7 87.1868ZM991.424 87.5636C991.76 88.0033 991.984 87.6893 991.984 86.8099C991.984 85.9306 991.76 85.6165 991.424 85.9934C991.2 86.4331 991.2 87.1868 991.424 87.5636Z" fill="#116500"/>
<rect x="-4.32422" y="100" width="1621.32" height="291" fill="#116500"/>
<defs>
<clipPath id="clip0_1506_2">
<rect width="1017.81" height="160" fill="white" transform="translate(-20)"/>
</clipPath>
</defs>
</svg>
