<svg width="99" height="34" viewBox="0 0 99 34" fill="none" xmlns="http://www.w3.org/2000/svg">
<path d="M8.82864 27.4741C8.57638 27.1394 8.32413 26.8047 8.19798 26.47C7.63039 24.8521 6.99973 23.1228 6.43214 21.3933C6.17984 20.5565 5.92758 19.6081 5.80143 18.7156C5.67533 17.3767 5.67533 16.0936 5.61225 14.8105C5.61225 13.1368 5.61225 11.4632 5.61225 9.78959C5.61225 8.84123 5.67533 7.83704 5.67533 6.88868C5.67533 5.38241 5.7384 3.93194 5.80143 2.42569C5.80143 2.03518 5.54918 1.75624 5.10774 1.58888C4.35093 1.30994 3.59411 1.36573 2.8373 1.30994C1.76518 1.19837 1.26065 1.5331 1.19758 2.53726C1.13452 3.59722 1.13452 4.65717 1.07145 5.7729C1.07145 6.60972 1.13452 7.44654 1.07145 8.28336C1.07145 10.0128 0.945312 11.7421 0.945312 13.4716C0.945312 14.3084 1.00838 15.201 1.07145 16.0936C1.13452 17.3767 1.19758 18.604 1.51291 19.8313C1.82824 21.226 2.33278 22.6207 2.90038 24.0153C3.72027 26.191 4.60318 28.3668 5.4861 30.5982C5.80148 31.435 6.24291 32.3276 6.62132 33.2202C6.74747 33.6108 7.12583 33.6665 7.50424 33.6665C8.07187 33.6665 8.63946 33.6108 9.20705 33.6665C10.2792 33.7781 11.1621 33.276 11.5405 32.2719C11.8558 31.3792 12.2343 30.4866 12.5496 29.5941C13.1802 28.0878 13.874 26.5258 14.5046 24.9079C14.6308 25.0753 14.6939 25.1311 14.6939 25.2427C15.1353 26.4142 15.5768 27.5857 16.0183 28.7572C16.5859 30.1519 17.1535 31.5466 17.658 32.9413C17.9103 33.555 18.4148 33.7223 19.0455 33.6665C19.8653 33.6108 20.7483 33.6108 21.5681 33.555C21.9465 33.555 22.1358 33.3876 22.2619 33.1087C22.5141 32.5508 22.8295 31.9929 23.0818 31.435C23.7124 29.7056 24.28 27.9762 24.9737 26.3026C25.6675 24.5174 26.4874 22.788 27.1811 21.0586C27.6225 19.9987 28.064 18.8829 27.6856 17.7114C27.6225 17.5998 27.6856 17.4325 27.6856 17.2651C27.7487 16.8746 27.8118 16.4283 27.8118 16.0378C27.8118 15.2568 27.6856 14.4757 27.6856 13.6947C27.6856 12.9695 27.8118 12.2443 27.8118 11.519C27.8118 8.95281 27.8118 6.3866 27.8118 3.82037C27.8118 3.37407 27.8118 2.87199 27.8118 2.3699C27.8118 1.58888 27.4334 1.25416 26.5504 1.19837C26.2351 1.14258 25.8567 1.14258 25.4783 1.14258C24.7846 1.0868 24.2169 1.36573 23.9647 1.92361C23.8385 2.31412 23.7124 2.76041 23.7124 3.20671C23.7124 4.37826 23.7755 5.49399 23.7755 6.66551C23.8385 10.6822 24.2169 14.6989 23.5232 18.6598C23.334 19.8313 23.0818 21.0028 22.7034 22.0628C22.1988 23.6806 21.5051 25.1869 20.8744 26.6931C20.7483 27.0279 20.6221 27.4183 20.433 27.4741C19.9284 27.5299 19.8653 26.9721 19.7392 26.6373C19.1716 24.9079 18.5409 23.1228 17.7211 21.3376C16.712 19.1061 16.4598 16.9304 16.5859 14.5873C16.5859 14.1968 16.5228 13.8621 16.5228 13.4716C16.5228 10.9054 16.5228 8.3949 16.5228 5.88448C16.5859 4.76875 16.5859 3.7088 16.5859 2.59305C16.5228 1.5331 16.0183 1.14258 14.82 1.19837C14.6939 1.19837 14.5046 1.19837 14.3785 1.19837C13.3064 1.25416 12.928 1.5331 12.7388 2.53726C12.6127 2.92777 12.6127 3.31828 12.6127 3.70879C12.5496 5.88448 12.5496 8.0602 12.5496 10.1801C12.5496 10.738 12.4865 11.2401 12.4865 11.7421C12.5496 13.7505 12.5496 15.7588 12.5496 17.7672C12.5496 17.823 12.5496 17.9345 12.5496 18.0461C12.2343 19.1061 11.982 20.2218 11.6036 21.2818C11.1621 22.5649 10.5945 23.7922 10.0269 25.0753C9.71161 25.8563 9.39627 26.6374 9.01787 27.4183C8.95479 27.4183 8.89172 27.4741 8.82864 27.4741ZM44.7772 5.60557C44.7772 5.4382 44.7772 5.27083 44.7772 5.15925C44.7772 4.26667 44.7772 3.42986 44.7772 2.53726C44.7142 1.70046 44.3358 1.19837 43.642 1.14258C42.9483 1.0868 42.1915 1.03101 41.4978 1.03101C39.1012 1.03101 36.3894 1.0868 33.6775 1.14258C32.29 1.14258 31.5963 1.70045 31.5963 2.8162C31.5963 4.82454 31.5963 6.83289 31.344 8.84123C31.2809 9.06435 31.2179 9.28751 31.2179 9.51068C31.2809 10.9612 31.4071 12.4116 31.4702 13.8621C31.5332 16.5399 31.5332 19.2176 31.5963 21.8954C31.6593 24.9079 31.6593 27.9204 31.7224 30.933C31.7855 31.3235 31.7855 31.7698 31.9747 32.1045C32.1639 32.5508 32.4162 33.0529 33.1099 33.1087C34.3712 33.2202 35.6326 33.4434 36.957 33.4434C38.2814 33.4992 40.6148 33.3876 41.9392 33.3318C42.5069 33.3318 43.0744 33.276 43.579 33.2202C43.9574 33.1644 44.4619 33.1644 44.525 32.7739C44.7142 31.714 44.8403 30.654 44.9034 29.6499C44.9034 28.8688 44.7772 28.0878 44.7772 27.3626C44.7142 24.2385 44.6511 21.1702 44.6511 18.0461C44.6511 14.922 44.7142 11.7421 44.7772 8.56227C44.7772 7.61392 44.7772 6.60972 44.7772 5.60557ZM40.9301 25.1311C40.9301 25.6332 41.0563 26.1352 40.9932 26.6373C40.9932 27.5857 40.9932 28.4783 40.8671 29.3709C40.804 29.9288 39.9211 30.3751 39.1012 30.3751C38.6598 30.3751 37.966 30.3193 37.3354 30.3193C36.4524 30.2635 35.8849 29.9846 35.7587 29.4825C35.5695 28.5899 35.3803 27.6973 35.3172 26.8047C35.2541 25.0753 35.3172 23.3459 35.3172 21.6165C35.3803 19.2176 35.4434 16.8188 35.4434 14.4199C35.5064 12.5232 35.5064 10.6264 35.4434 8.78544C35.4434 8.11599 35.2541 7.44654 35.3172 6.7771C35.4434 6.10765 35.6325 5.4382 35.8848 4.76875C35.9479 4.43405 36.2632 4.26667 36.7678 4.26667C37.5876 4.32247 39.3535 4.26667 40.1734 4.26667C40.6779 4.26667 40.9301 4.4898 40.9301 4.93612C40.9932 5.32662 41.0563 5.7729 41.0563 6.21923C41.0563 7.44654 41.0563 8.67386 41.0563 9.90117C40.9932 11.5748 40.804 13.3042 40.804 15.0336C40.804 17.2651 40.8671 19.5523 40.9301 21.8396C40.9301 22.9554 40.9301 24.0153 40.9301 25.1311ZM62.1675 5.60557C62.1675 5.4382 62.1675 5.27083 62.1675 5.15925C62.1675 4.26667 62.1675 3.42986 62.1675 2.53726C62.1042 1.70046 61.7257 1.19837 61.0321 1.14258C60.3385 1.0868 59.5816 1.03101 58.888 1.03101C56.4911 1.03101 53.7796 1.0868 51.0676 1.14258C49.6804 1.14258 48.9863 1.70045 48.9863 2.8162C48.9863 4.82454 48.9863 6.83289 48.734 8.84123C48.6712 9.06435 48.6079 9.28751 48.6079 9.51068C48.6712 10.9612 48.7973 12.4116 48.8602 13.8621C48.9235 16.5399 48.9235 19.2176 48.9863 21.8954C49.0496 24.9079 49.0496 27.9204 49.1125 30.933C49.1758 31.3235 49.1758 31.7698 49.3648 32.1045C49.5542 32.5508 49.8061 33.0529 50.5001 33.1087C51.7612 33.2202 53.0227 33.4434 54.347 33.4434C55.6714 33.4992 58.005 33.3876 59.3293 33.3318C59.8968 33.3318 60.4647 33.276 60.9693 33.2202C61.3477 33.1644 61.8519 33.1644 61.9152 32.7739C62.1042 31.714 62.2303 30.654 62.2936 29.6499C62.2936 28.8688 62.1675 28.0878 62.1675 27.3626C62.1042 24.2385 62.0413 21.1702 62.0413 18.0461C62.0413 14.922 62.1042 11.7421 62.1675 8.56227C62.1675 7.61392 62.1675 6.60972 62.1675 5.60557ZM58.3201 25.1311C58.3201 25.6332 58.4462 26.1352 58.3834 26.6373C58.3834 27.5857 58.3834 28.4783 58.2573 29.3709C58.1939 29.9288 57.3114 30.3751 56.4911 30.3751C56.0498 30.3751 55.3562 30.3193 54.7255 30.3193C53.8424 30.2635 53.275 29.9846 53.1488 29.4825C52.9598 28.5899 52.7704 27.6973 52.7075 26.8047C52.6442 25.0753 52.7075 23.3459 52.7075 21.6165C52.7704 19.2176 52.8337 16.8188 52.8337 14.4199C52.8965 12.5232 52.8965 10.6264 52.8337 8.78544C52.8337 8.11599 52.6442 7.44654 52.7075 6.7771C52.8337 6.10765 53.0227 5.4382 53.275 4.76875C53.3378 4.43405 53.6534 4.26667 54.158 4.26667C54.9778 4.32247 56.7434 4.26667 57.5637 4.26667C58.0683 4.26667 58.3201 4.4898 58.3201 4.93612C58.3834 5.32662 58.4462 5.7729 58.4462 6.21923C58.4462 7.44654 58.4462 8.67386 58.4462 9.90117C58.3834 11.5748 58.1939 13.3042 58.1939 15.0336C58.1939 17.2651 58.2573 19.5523 58.3201 21.8396C58.3201 22.9554 58.3201 24.0153 58.3201 25.1311ZM66.3768 4.76875C66.3135 6.27502 66.1873 7.83704 66.1873 9.3433C66.2506 12.5232 66.3768 15.703 66.4396 18.8829C66.5025 20.0545 66.3768 21.226 66.3135 22.3417C66.3135 24.7963 66.2506 27.1952 66.2506 29.6499C66.1873 30.2635 66.1245 30.8772 66.2506 31.4908C66.3768 32.6624 66.3135 32.9971 67.8901 33.276C68.5837 33.4434 69.3406 33.4434 70.0342 33.4992C70.7911 33.4992 71.9265 33.3876 72.6834 33.3318C73.8183 33.276 74.9536 33.2202 76.089 33.0529C78.2331 32.7739 79.8731 31.8255 80.7557 30.0403C81.4497 28.7015 81.7649 27.3068 81.8277 25.8563C81.891 24.5732 81.891 23.2343 81.8277 21.9512C81.8277 20.2776 81.7649 18.6598 81.7649 16.9861C81.8277 15.201 81.9539 13.4158 82.0172 11.6306C82.0172 10.4032 81.9539 9.12014 81.891 7.83704C81.8277 7.1118 81.7016 6.3866 81.5759 5.66136C81.1974 4.04352 80.2511 2.8162 78.6744 1.92361C77.3501 1.19837 75.7734 0.919434 74.1967 0.863647C73.0618 0.863647 71.548 0.975225 70.4127 1.03101C69.3406 1.03101 68.3314 1.0868 67.3227 1.14258C66.4396 1.19837 66.3135 1.25416 66.3135 2.09097C66.3135 2.98356 66.3135 3.87616 66.3135 4.76875C66.3768 4.76875 66.3768 4.76875 66.3768 4.76875ZM78.0441 14.4199C78.0441 15.3683 78.107 16.2609 78.107 17.1535C78.107 18.9387 78.1703 20.7239 78.107 22.5091C78.0441 24.3501 77.7285 26.1352 77.0349 27.9204C76.5303 29.2593 75.206 29.7056 73.8816 29.9846C73.2508 30.1519 72.4939 30.0403 71.8003 30.0403C70.9806 30.0961 70.0975 29.7056 70.0975 28.9804C70.0975 27.9204 70.2237 26.9163 70.2237 25.9121C70.1604 23.6248 70.0975 21.2818 70.0975 18.9945C70.0975 17.3209 70.1604 15.6472 70.1604 14.0294C70.1604 12.1327 70.1604 10.1801 70.2237 8.28336C70.2237 7.16759 70.3498 6.10765 70.476 4.99192C70.6021 4.37826 71.359 4.1551 72.0526 4.1551C72.9357 4.21088 73.8816 4.1551 74.7013 4.37826C76.5931 4.93612 77.4134 6.3866 77.8547 8.00441C78.107 8.89702 78.1703 9.90117 78.1703 10.8496C78.2331 12.0211 78.0441 13.2484 78.0441 14.4199ZM85.2272 13.081C85.2905 14.7547 86.6149 15.9262 88.5067 15.9262C89.7049 15.9262 90.9664 15.9262 92.1646 15.982C93.4261 15.982 94.2458 16.8188 94.1197 17.9903C94.0564 18.9945 93.9935 19.9987 93.9935 21.0028C93.9302 23.6248 93.8674 26.3026 93.8674 28.9246C93.8674 29.4267 93.6151 29.7056 93.1105 29.8172C92.8582 29.873 92.6059 29.9288 92.3536 29.9288C90.7141 29.873 89.0741 29.8172 87.4974 29.8172C86.8672 29.8172 86.2364 29.873 85.6685 29.9288C85.1644 29.9846 84.912 30.2077 84.912 30.654C84.912 31.1003 84.912 31.5466 84.912 32.0487C84.912 32.9971 85.2272 33.276 86.2992 33.3318C86.4254 33.3318 86.5515 33.3318 86.741 33.3318C87.6236 33.276 88.4438 33.1644 89.3264 33.1087C90.4618 33.1087 91.66 33.2202 92.7953 33.2202C93.7412 33.2202 94.7504 33.2202 95.7592 33.2202C97.0207 33.2202 97.8404 32.4392 97.8404 31.3792C97.9038 29.5383 97.9666 27.6973 98.0299 25.8005C98.0299 25.5774 98.0927 25.3542 98.0927 25.1311C98.1561 24.1827 98.2189 23.2343 98.2189 22.2859C98.2822 21.3934 98.2189 20.5008 98.1561 19.6081C98.1561 18.3808 98.1561 17.1535 98.0927 15.9262C98.0927 15.3125 97.9038 14.7547 97.7143 14.1968C97.462 13.4158 96.8945 12.8021 96.0748 12.6348C95.0656 12.4674 94.0564 12.4674 93.0476 12.4116C92.1013 12.4116 91.0925 12.4674 90.1466 12.4674C89.642 12.4674 89.2003 12.1327 89.1374 11.6863C89.0113 11.0727 88.9479 10.4032 88.9479 9.7338C89.0113 8.28336 89.1374 6.83289 89.2003 5.38241C89.2003 4.82454 89.4525 4.4898 90.0833 4.43405C90.7769 4.37826 91.4077 4.43405 92.1017 4.43405C93.2999 4.43405 93.6784 4.76875 93.6784 5.7729C93.6784 6.16344 93.8674 6.44235 94.2458 6.49814C94.9394 6.60972 95.6963 6.60972 96.4532 6.66551C96.6422 6.66551 96.8945 6.60972 97.0835 6.66551C97.5253 6.7213 97.9666 6.49814 98.0299 6.16344C98.0299 5.15925 98.1561 4.0993 98.0927 3.03935C98.0927 2.03518 97.462 1.25416 96.3899 1.14258C95.0027 1.03101 93.6151 1.03101 92.2274 1.08679C91.0925 1.14258 89.9572 1.19837 88.8218 1.08679C86.93 0.807861 85.4795 1.5331 85.2272 3.31828C85.0382 4.99192 85.101 6.66551 84.9749 8.45069C85.101 9.90117 85.1643 11.519 85.2272 13.081Z" fill="black"/>
</svg>
