<svg width="113" height="35" viewBox="0 0 113 35" fill="none" xmlns="http://www.w3.org/2000/svg">
<path d="M10.0453 27.4741C9.75827 27.1394 9.47124 26.8047 9.3277 26.47C8.68186 24.8521 7.96426 23.1228 7.31843 21.3933C7.03134 20.5565 6.74431 19.6081 6.60077 18.7156C6.45728 17.3767 6.45728 16.0936 6.38551 14.8105C6.38551 13.1368 6.38551 11.4632 6.38551 9.78959C6.38551 8.84123 6.45728 7.83704 6.45728 6.88868C6.45728 5.38241 6.52905 3.93194 6.60077 2.42569C6.60077 2.03518 6.31374 1.75624 5.81145 1.58888C4.9503 1.30994 4.08915 1.36573 3.22801 1.30994C2.00809 1.19837 1.434 1.5331 1.36224 2.53726C1.29048 3.59722 1.29048 4.65717 1.21872 5.7729C1.21872 6.60972 1.29048 7.44654 1.21872 8.28336C1.21872 10.0128 1.0752 11.7421 1.0752 13.4716C1.0752 14.3083 1.14696 15.201 1.21872 16.0936C1.29048 17.3767 1.36224 18.604 1.72104 19.8313C2.07985 21.226 2.65394 22.6207 3.29978 24.0153C4.2327 26.191 5.23733 28.3668 6.24197 30.5982C6.60082 31.435 7.10311 32.3276 7.53369 33.2202C7.67723 33.6108 8.10775 33.6665 8.53832 33.6665C9.18421 33.6665 9.83004 33.6108 10.4759 33.6665C11.6958 33.7781 12.7005 33.276 13.131 32.2719C13.4898 31.3792 13.9204 30.4866 14.2792 29.5941C14.9968 28.0878 15.7862 26.5258 16.5038 24.9079C16.6473 25.0753 16.7191 25.1311 16.7191 25.2427C17.2214 26.4142 17.7237 27.5857 18.2261 28.7572C18.8719 30.1519 19.5178 31.5466 20.0919 32.9413C20.3789 33.555 20.953 33.7223 21.6706 33.6665C22.6035 33.6108 23.6082 33.6108 24.541 33.555C24.9716 33.555 25.1869 33.3876 25.3304 33.1087C25.6174 32.5508 25.9763 31.9929 26.2633 31.435C26.9809 29.7056 27.6268 27.9762 28.4161 26.3026C29.2055 24.5174 30.1384 22.788 30.9278 21.0586C31.4301 19.9987 31.9324 18.8829 31.5019 17.7114C31.4301 17.5998 31.5019 17.4325 31.5019 17.2651C31.5736 16.8746 31.6454 16.4283 31.6454 16.0378C31.6454 15.2568 31.5019 14.4757 31.5019 13.6947C31.5019 12.9695 31.6454 12.2443 31.6454 11.519C31.6454 8.95281 31.6454 6.3866 31.6454 3.82037C31.6454 3.37407 31.6454 2.87199 31.6454 2.3699C31.6454 1.58888 31.2148 1.25416 30.2101 1.19837C29.8513 1.14258 29.4208 1.14258 28.9902 1.14258C28.2009 1.0868 27.555 1.36573 27.268 1.92361C27.1244 2.31412 26.9809 2.76041 26.9809 3.20671C26.9809 4.37826 27.0527 5.49399 27.0527 6.66551C27.1244 10.6822 27.555 14.6989 26.7656 18.6598C26.5504 19.8313 26.2633 21.0028 25.8327 22.0628C25.2586 23.6806 24.4693 25.1869 23.7517 26.6931C23.6082 27.0279 23.4646 27.4183 23.2494 27.4741C22.6752 27.5299 22.6035 26.9721 22.46 26.6373C21.8141 24.9079 21.0965 23.1228 20.1636 21.3376C19.0155 19.1061 18.7284 16.9304 18.8719 14.5873C18.8719 14.1968 18.8001 13.8621 18.8001 13.4716C18.8001 10.9054 18.8001 8.3949 18.8001 5.88448C18.8719 4.76875 18.8719 3.7088 18.8719 2.59305C18.8001 1.5331 18.2261 1.14258 16.8626 1.19837C16.7191 1.19837 16.5038 1.19837 16.3603 1.19837C15.1404 1.25416 14.7098 1.5331 14.4945 2.53726C14.351 2.92777 14.351 3.31828 14.351 3.70879C14.2792 5.88448 14.2792 8.0602 14.2792 10.1801C14.2792 10.738 14.2074 11.2401 14.2074 11.7421C14.2792 13.7505 14.2792 15.7588 14.2792 17.7672C14.2792 17.823 14.2792 17.9345 14.2792 18.0461C13.9204 19.1061 13.6334 20.2218 13.2028 21.2818C12.7005 22.5649 12.0546 23.7922 11.4088 25.0753C11.05 25.8563 10.6912 26.6374 10.2606 27.4183C10.1888 27.4183 10.1171 27.4741 10.0453 27.4741ZM50.9497 5.60557C50.9497 5.4382 50.9497 5.27083 50.9497 5.15925C50.9497 4.26667 50.9497 3.42986 50.9497 2.53726C50.8779 1.70046 50.4474 1.19837 49.658 1.14258C48.8686 1.0868 48.0075 1.03101 47.2181 1.03101C44.4912 1.03101 41.4055 1.0868 38.3197 1.14258C36.741 1.14258 35.9516 1.70045 35.9516 2.8162C35.9516 4.82454 35.9516 6.83289 35.6646 8.84123C35.5928 9.06435 35.521 9.28751 35.521 9.51068C35.5928 10.9612 35.7364 12.4116 35.8081 13.8621C35.8799 16.5399 35.8799 19.2176 35.9516 21.8954C36.0234 24.9079 36.0234 27.9204 36.0952 30.933C36.1669 31.3235 36.1669 31.7698 36.3822 32.1045C36.5975 32.5508 36.8845 33.0529 37.6739 33.1087C39.1091 33.2202 40.5443 33.4434 42.0513 33.4434C43.5583 33.4992 46.2134 33.3876 47.7204 33.3318C48.3663 33.3318 49.0121 33.276 49.5863 33.2202C50.0168 33.1644 50.5909 33.1644 50.6627 32.7739C50.8779 31.714 51.0215 30.654 51.0932 29.6499C51.0932 28.8688 50.9497 28.0878 50.9497 27.3626C50.8779 24.2385 50.8062 21.1702 50.8062 18.0461C50.8062 14.922 50.8779 11.7421 50.9497 8.56227C50.9497 7.61392 50.9497 6.60972 50.9497 5.60557ZM46.5722 25.1311C46.5722 25.6332 46.7158 26.1352 46.644 26.6373C46.644 27.5857 46.644 28.4783 46.5005 29.3709C46.4288 29.9288 45.4241 30.3751 44.4912 30.3751C43.9889 30.3751 43.1995 30.3193 42.4819 30.3193C41.4772 30.2635 40.8314 29.9846 40.6879 29.4825C40.4726 28.5899 40.2573 27.6973 40.1855 26.8047C40.1138 25.0753 40.1855 23.3459 40.1855 21.6165C40.2573 19.2176 40.3291 16.8188 40.3291 14.4199C40.4008 12.5232 40.4008 10.6264 40.3291 8.78544C40.3291 8.11599 40.1138 7.44654 40.1855 6.7771C40.3291 6.10765 40.5443 5.4382 40.8314 4.76875C40.9031 4.43405 41.2619 4.26667 41.8361 4.26667C42.7689 4.32247 44.7782 4.26667 45.7112 4.26667C46.2852 4.26667 46.5722 4.4898 46.5722 4.93612C46.644 5.32662 46.7158 5.7729 46.7158 6.21923C46.7158 7.44654 46.7158 8.67386 46.7158 9.90117C46.644 11.5748 46.4288 13.3042 46.4288 15.0336C46.4288 17.2651 46.5005 19.5524 46.5722 21.8396C46.5722 22.9554 46.5722 24.0153 46.5722 25.1311ZM70.7373 5.60557C70.7373 5.4382 70.7373 5.27083 70.7373 5.15925C70.7373 4.26667 70.7373 3.42986 70.7373 2.53726C70.6653 1.70046 70.2346 1.19837 69.4454 1.14258C68.6562 1.0868 67.795 1.03101 67.0057 1.03101C64.2784 1.03101 61.1931 1.0868 58.1072 1.14258C56.5288 1.14258 55.739 1.70045 55.739 2.8162C55.739 4.82454 55.739 6.83289 55.4519 8.84123C55.3804 9.06435 55.3084 9.28751 55.3084 9.51068C55.3804 10.9612 55.524 12.4116 55.5955 13.8621C55.6675 16.5399 55.6675 19.2176 55.739 21.8954C55.8111 24.9079 55.8111 27.9204 55.8826 30.933C55.9546 31.3235 55.9546 31.7698 56.1696 32.1045C56.3852 32.5508 56.6718 33.0529 57.4615 33.1087C58.8964 33.2202 60.3318 33.4434 61.8388 33.4434C63.3457 33.4992 66.0009 33.3876 67.5079 33.3318C68.1535 33.3318 68.7998 33.276 69.3739 33.2202C69.8045 33.1644 70.3782 33.1644 70.4502 32.7739C70.6653 31.714 70.8088 30.654 70.8808 29.6499C70.8808 28.8688 70.7373 28.0878 70.7373 27.3626C70.6653 24.2385 70.5938 21.1702 70.5938 18.0461C70.5938 14.922 70.6653 11.7421 70.7373 8.56227C70.7373 7.61392 70.7373 6.60972 70.7373 5.60557ZM66.3595 25.1311C66.3595 25.6332 66.5031 26.1352 66.4316 26.6373C66.4316 27.5857 66.4316 28.4783 66.288 29.3709C66.216 29.9288 65.2117 30.3751 64.2784 30.3751C63.7763 30.3751 62.9871 30.3193 62.2694 30.3193C61.2646 30.2635 60.6189 29.9846 60.4754 29.4825C60.2603 28.5899 60.0447 27.6973 59.9732 26.8047C59.9012 25.0753 59.9732 23.3459 59.9732 21.6165C60.0447 19.2176 60.1168 16.8188 60.1168 14.4199C60.1883 12.5232 60.1883 10.6264 60.1168 8.78544C60.1168 8.11599 59.9012 7.44654 59.9732 6.7771C60.1168 6.10765 60.3318 5.4382 60.6189 4.76875C60.6904 4.43405 61.0495 4.26667 61.6237 4.26667C62.5565 4.32247 64.5655 4.26667 65.4988 4.26667C66.073 4.26667 66.3595 4.4898 66.3595 4.93612C66.4316 5.32662 66.5031 5.7729 66.5031 6.21923C66.5031 7.44654 66.5031 8.67386 66.5031 9.90117C66.4316 11.5748 66.216 13.3042 66.216 15.0336C66.216 17.2651 66.288 19.5524 66.3595 21.8396C66.3595 22.9554 66.3595 24.0153 66.3595 25.1311ZM75.5269 4.76875C75.4548 6.27502 75.3113 7.83704 75.3113 9.3433C75.3833 12.5232 75.5269 15.703 75.5984 18.8829C75.6699 20.0545 75.5269 21.226 75.4548 22.3417C75.4548 24.7964 75.3833 27.1952 75.3833 29.6499C75.3113 30.2635 75.2398 30.8772 75.3833 31.4908C75.5269 32.6624 75.4548 32.9971 77.2489 33.276C78.0381 33.4434 78.8993 33.4434 79.6885 33.4992C80.5498 33.4992 81.8417 33.3876 82.7029 33.3318C83.9943 33.276 85.2862 33.2202 86.578 33.0529C89.0177 32.7739 90.8838 31.8255 91.888 30.0403C92.6778 28.7015 93.0364 27.3068 93.1079 25.8563C93.1799 24.5732 93.1799 23.2343 93.1079 21.9512C93.1079 20.2776 93.0364 18.6598 93.0364 16.9861C93.1079 15.201 93.2514 13.4158 93.3234 11.6306C93.3234 10.4032 93.2514 9.12014 93.1799 7.83704C93.1079 7.1118 92.9643 6.3866 92.8213 5.66136C92.3907 4.04352 91.3139 2.8162 89.5198 1.92361C88.0129 1.19837 86.2189 0.919434 84.4249 0.863647C83.1336 0.863647 81.411 0.975225 80.1192 1.03101C78.8993 1.03101 77.751 1.0868 76.6032 1.14258C75.5984 1.19837 75.4548 1.25416 75.4548 2.09097C75.4548 2.98356 75.4548 3.87616 75.4548 4.76875C75.5269 4.76875 75.5269 4.76875 75.5269 4.76875ZM88.8027 14.4199C88.8027 15.3683 88.8742 16.2609 88.8742 17.1535C88.8742 18.9387 88.9462 20.7239 88.8742 22.5091C88.8027 24.3501 88.4435 26.1352 87.6543 27.9204C87.0802 29.2593 85.5732 29.7056 84.0663 29.9846C83.3486 30.1519 82.4873 30.0403 81.6981 30.0403C80.7654 30.0961 79.7606 29.7056 79.7606 28.9804C79.7606 27.9204 79.9041 26.9163 79.9041 25.9121C79.8321 23.6248 79.7606 21.2818 79.7606 18.9945C79.7606 17.3209 79.8321 15.6472 79.8321 14.0294C79.8321 12.1327 79.8321 10.1801 79.9041 8.28336C79.9041 7.16759 80.0477 6.10765 80.1912 4.99192C80.3347 4.37826 81.196 4.1551 81.9852 4.1551C82.99 4.21088 84.0663 4.1551 84.9991 4.37826C87.1517 4.93612 88.085 6.3866 88.5871 8.00441C88.8742 8.89702 88.9462 9.90117 88.9462 10.8496C89.0177 12.0211 88.8027 13.2484 88.8027 14.4199ZM96.976 13.081C97.048 14.7547 98.5549 15.9262 100.708 15.9262C102.071 15.9262 103.506 15.9262 104.87 15.982C106.305 15.982 107.238 16.8188 107.094 17.9903C107.022 18.9945 106.951 19.9987 106.951 21.0028C106.879 23.6248 106.807 26.3026 106.807 28.9246C106.807 29.4267 106.52 29.7056 105.946 29.8172C105.659 29.873 105.372 29.9288 105.085 29.9288C103.219 29.873 101.353 29.8172 99.5592 29.8172C98.842 29.8172 98.1243 29.873 97.4781 29.9288C96.9045 29.9846 96.6174 30.2077 96.6174 30.654C96.6174 31.1003 96.6174 31.5466 96.6174 32.0487C96.6174 32.9971 96.976 33.276 98.1958 33.3318C98.3394 33.3318 98.4829 33.3318 98.6985 33.3318C99.7027 33.276 100.636 33.1644 101.64 33.1087C102.932 33.1087 104.296 33.2202 105.587 33.2202C106.664 33.2202 107.812 33.2202 108.96 33.2202C110.395 33.2202 111.328 32.4392 111.328 31.3792C111.4 29.5383 111.472 27.6973 111.544 25.8005C111.544 25.5774 111.615 25.3542 111.615 25.1311C111.687 24.1827 111.759 23.2343 111.759 22.2859C111.831 21.3934 111.759 20.5008 111.687 19.6081C111.687 18.3808 111.687 17.1535 111.615 15.9262C111.615 15.3125 111.4 14.7547 111.185 14.1968C110.897 13.4158 110.252 12.8021 109.319 12.6348C108.171 12.4674 107.022 12.4674 105.875 12.4116C104.798 12.4116 103.65 12.4674 102.574 12.4674C101.999 12.4674 101.497 12.1327 101.425 11.6863C101.282 11.0727 101.21 10.4032 101.21 9.7338C101.282 8.28336 101.425 6.83289 101.497 5.38241C101.497 4.82454 101.784 4.4898 102.502 4.43405C103.291 4.37826 104.008 4.43405 104.798 4.43405C106.162 4.43405 106.592 4.76875 106.592 5.7729C106.592 6.16344 106.807 6.44235 107.238 6.49814C108.027 6.60972 108.888 6.60972 109.75 6.66551C109.965 6.66551 110.252 6.60972 110.467 6.66551C110.969 6.7213 111.472 6.49814 111.544 6.16344C111.544 5.15925 111.687 4.0993 111.615 3.03935C111.615 2.03518 110.897 1.25416 109.678 1.14258C108.099 1.03101 106.52 1.03101 104.941 1.08679C103.65 1.14258 102.358 1.19837 101.066 1.08679C98.9135 0.807861 97.2631 1.5331 96.976 3.31828C96.7609 4.99192 96.8324 6.66551 96.6889 8.45069C96.8324 9.90117 96.9045 11.519 96.976 13.081Z" fill="white"/>
</svg>
